<svg xmlns="http://www.w3.org/2000/svg" xmlns:xlink="http://www.w3.org/1999/xlink" viewBox="0 0 900 362.41"><defs><style>.cls-1{fill:url(#Degradado_sin_nombre_53);}</style><linearGradient id="Degradado_sin_nombre_53" x1="188.97" y1="346.53" x2="188.97" y2="-49.39" gradientUnits="userSpaceOnUse"><stop offset="0" stop-color="#7b2567"/><stop offset="1" stop-color="#b02348"/></linearGradient></defs><title>Recurso 5</title><g id="Capa_2" data-name="Capa 2"><g id="Capa_1-2" data-name="Capa 1"><path class="cls-1" d="M377.91,269.61c-.41-19.72-13-46.66-28.42-59a75.18,75.18,0,0,0-55.65-16.15,63.45,63.45,0,0,0-56,70,52.61,52.61,0,0,0,11.89,28.2,53.4,53.4,0,0,0,42.66,19.39,3.16,3.16,0,0,0,3-3.19v-22.3a3.17,3.17,0,0,0-3.15-3.16c-5.88,0-12.33-1.94-16.71-5.44a24.76,24.76,0,0,1-9.18-16.67,34.81,34.81,0,0,1,13.78-31.72c4.12-3.16,11.93-6,17.09-6.58a47,47,0,0,1,42.48,18.41c4.54,5.85,8.53,16.91,9.21,24.28a61.86,61.86,0,0,1-13.78,45c-11.43,14-35.88,23.71-54,22.91A81.52,81.52,0,0,1,204,261.29a105.19,105.19,0,0,1-.65-10.58v-.13a105.45,105.45,0,0,1,89.39-105,3.16,3.16,0,0,0,2.72-3.11V119.9a3.19,3.19,0,0,0-3.6-3.18c-34.24,4.71-66.24,22.2-87.85,49.21a135.59,135.59,0,0,0-15,23.34,135.05,135.05,0,0,0-15-23.34c-21.61-27-53.61-44.5-87.84-49.21a3.19,3.19,0,0,0-3.61,3.18v22.57a3.17,3.17,0,0,0,2.72,3.11,105.44,105.44,0,0,1,89.39,105v.13a105.19,105.19,0,0,1-.65,10.58,81.51,81.51,0,0,1-77.24,72.32c-18.07.8-42.52-8.9-54-22.91a61.85,61.85,0,0,1-13.77-45c.67-7.37,4.66-18.43,9.2-24.28A47,47,0,0,1,80.67,223c5.17.54,13,3.42,17.1,6.58a34.78,34.78,0,0,1,13.77,31.72A24.68,24.68,0,0,1,102.36,278c-4.38,3.5-10.83,5.39-16.7,5.44a3.17,3.17,0,0,0-3.16,3.16v22.3a3.17,3.17,0,0,0,3,3.19,53.43,53.43,0,0,0,42.67-19.39,52.6,52.6,0,0,0,11.88-28.2,63.45,63.45,0,0,0-56-70,75.18,75.18,0,0,0-55.65,16.15C13.05,223,.43,249.89,0,269.61c0,.63,0,1.27,0,1.9,0,26.79,11.75,52.31,33.46,70.41a89.15,89.15,0,0,0,47.46,19.81A110.28,110.28,0,0,0,189,306.39a110.26,110.26,0,0,0,108,55.34,89.12,89.12,0,0,0,47.46-19.81c21.71-18.1,33.46-43.62,33.46-70.41C377.93,270.88,377.93,270.24,377.91,269.61Z"/><path class="cls-1" d="M190.91,140.45a3.18,3.18,0,0,1-3.88,0l-6.82-5.24a81.44,81.44,0,0,1,0-129.31L187,.66a3.17,3.17,0,0,1,3.87,0l6.82,5.24a81.42,81.42,0,0,1,0,129.31Zm.72-99.81a3.23,3.23,0,0,0-5.33,0,52.76,52.76,0,0,0,0,59.83,3.23,3.23,0,0,0,5.33,0,52.76,52.76,0,0,0,0-59.83Z"/><path d="M470,61.16c.59.49,1.35,1.14,2.28,2a30.55,30.55,0,0,0,3.17,2.43,26.72,26.72,0,0,0,5.29,2.78,15.35,15.35,0,0,0,5.49,1,14.32,14.32,0,0,0,4.48-.6,7.65,7.65,0,0,0,2.86-1.6,5.75,5.75,0,0,0,1.49-2.3,8.69,8.69,0,0,0,.44-2.77,4.11,4.11,0,0,0-1.23-2.91,12.71,12.71,0,0,0-3-2.27,25,25,0,0,0-3.72-1.7c-1.29-.47-2.4-.87-3.35-1.18a76.71,76.71,0,0,1-11-4.73,33.94,33.94,0,0,1-7.85-5.66,21,21,0,0,1-4.71-6.85,21.26,21.26,0,0,1-1.57-8.34,19.72,19.72,0,0,1,2-8.85,19.46,19.46,0,0,1,5.6-6.8,26.8,26.8,0,0,1,8.77-4.37,39.79,39.79,0,0,1,11.47-1.54A38.45,38.45,0,0,1,496,7.93a34.78,34.78,0,0,1,8.61,3.43c1.19.7,2.31,1.43,3.38,2.18a33.17,33.17,0,0,1,2.8,2.17,13.33,13.33,0,0,1,1.91,2,2.92,2.92,0,0,1,.71,1.62,2.41,2.41,0,0,1-.34,1.26,8.6,8.6,0,0,1-1,1.31l-8,8.54a2.58,2.58,0,0,1-1.78.88,2.28,2.28,0,0,1-1.34-.41,15.81,15.81,0,0,1-1.33-1l-.48-.42c-.69-.6-1.47-1.2-2.32-1.83A21.88,21.88,0,0,0,494,25.89a19,19,0,0,0-3.09-1.25,11.29,11.29,0,0,0-3.3-.5,17.62,17.62,0,0,0-3.25.29,9,9,0,0,0-2.67.92A4.93,4.93,0,0,0,479.89,27a4.84,4.84,0,0,0,.05,5,7.19,7.19,0,0,0,2.2,2,20.37,20.37,0,0,0,3.64,1.73c1.45.54,3.13,1.13,5.05,1.75q5.55,1.83,10.24,3.85a34.2,34.2,0,0,1,8.09,4.77,19.72,19.72,0,0,1,5.32,6.57,20.62,20.62,0,0,1,1.9,9.27A22.89,22.89,0,0,1,514,72.39a23.86,23.86,0,0,1-6.47,8,30.3,30.3,0,0,1-9.66,5.11A38.48,38.48,0,0,1,486,87.29a33.92,33.92,0,0,1-11.83-2.15,45.36,45.36,0,0,1-10.84-5.78,27.24,27.24,0,0,1-3.53-3c-1-1-1.73-1.77-2.28-2.37l-.16-.15a.33.33,0,0,0-.1-.14.26.26,0,0,1-.11-.07c0-.07-.07-.12-.1-.13l-.11-.08a3.72,3.72,0,0,1-1.21-2.11,3,3,0,0,1,1.21-2L466,60.69a3.42,3.42,0,0,1,1.78-.78,2,2,0,0,1,1,.31A10.36,10.36,0,0,1,470,61.16Z"/><path d="M595.19,82.42a4.62,4.62,0,0,1-.31,1.7,4.09,4.09,0,0,1-2.41,2,7.5,7.5,0,0,1-1.36.16H580.79A4.69,4.69,0,0,1,579,86a2.85,2.85,0,0,1-1.1-.81,4.64,4.64,0,0,1-.7-1.29c-.2-.5-.39-1-.6-1.64l-1.52-3.93q-1.43,1.41-3.09,3a28.4,28.4,0,0,1-3.69,3,22.17,22.17,0,0,1-4.38,2.28,13.54,13.54,0,0,1-5,.92A34,34,0,0,1,526,62.34a35.15,35.15,0,0,1-1.21-9.24,34.32,34.32,0,0,1,2.67-13.54,34.67,34.67,0,0,1,7.28-10.89,33.94,33.94,0,0,1,24.19-9.93,17.55,17.55,0,0,1,6,1,19.94,19.94,0,0,1,5,2.54,24.08,24.08,0,0,1,4,3.56,40.29,40.29,0,0,1,3.22,4l2-6.34.86-2.12a3.65,3.65,0,0,1,.74-1.2,1.9,1.9,0,0,1,1-.53,8.39,8.39,0,0,1,1.63-.13h7.8a7.5,7.5,0,0,1,1.36.16,2.6,2.6,0,0,1,1.36.73,3.39,3.39,0,0,1,1,1.31,4.23,4.23,0,0,1,.31,1.68ZM543.62,53.1a19.06,19.06,0,0,0,1.07,6.47,15.3,15.3,0,0,0,3.06,5.21,14.53,14.53,0,0,0,11,4.76,16.56,16.56,0,0,0,6.52-1.28,16.73,16.73,0,0,0,5.23-3.48A15.85,15.85,0,0,0,574,59.57a16.94,16.94,0,0,0-3.49-18.2,16.34,16.34,0,0,0-5.23-3.64,15.91,15.91,0,0,0-6.52-1.34,14.27,14.27,0,0,0-6.21,1.34,14.55,14.55,0,0,0-4.79,3.64,16.3,16.3,0,0,0-3.06,5.34A18.88,18.88,0,0,0,543.62,53.1Z"/><path d="M650.33,65.82a3.53,3.53,0,0,1,1.39-.65,5.39,5.39,0,0,1,1-.13,3.6,3.6,0,0,1,1.62.36A4.39,4.39,0,0,1,655.88,67l5.87,8.85a7.64,7.64,0,0,1,.49,1,2.09,2.09,0,0,1,.24.83,2.65,2.65,0,0,1-.76,2,10.45,10.45,0,0,1-1.65,1.33,39.08,39.08,0,0,1-9.4,4.79,32,32,0,0,1-10.81,1.81,34.25,34.25,0,0,1-9.09-1.2,33.8,33.8,0,0,1-8.14-3.43,36,36,0,0,1-6.91-5.34,32.67,32.67,0,0,1-5.34-6.94A35.44,35.44,0,0,1,607,62.34a35.43,35.43,0,0,1,0-18.51,34.74,34.74,0,0,1,3.43-8.25,33,33,0,0,1,5.34-6.91,34.7,34.7,0,0,1,6.91-5.32,34.26,34.26,0,0,1,17.23-4.61,35.21,35.21,0,0,1,10.55,1.52,33,33,0,0,1,9.09,4.51l-.16-.16a6,6,0,0,1,1.83,1.6,3.74,3.74,0,0,1,.68,2.28,3.67,3.67,0,0,1-.63,1.94l-4.66,7.9c-1,1.71-2.16,2.57-3.56,2.57a3.58,3.58,0,0,1-1.15-.24,6.92,6.92,0,0,1-1.52-.81,23.91,23.91,0,0,0-5-2.49,16.37,16.37,0,0,0-5.63-1,13.84,13.84,0,0,0-6.07,1.34,14.26,14.26,0,0,0-4.74,3.64,17,17,0,0,0-3.06,5.34,19.34,19.34,0,0,0,0,12.86,16,16,0,0,0,3.06,5.21,14.31,14.31,0,0,0,10.81,4.76,15,15,0,0,0,5.61-1.05A25.1,25.1,0,0,0,650.33,65.82Z"/><path d="M672.43,23.67a4,4,0,0,1,1.36-3,5.13,5.13,0,0,1,2.83-.89h7.9a3,3,0,0,1,1.58.37,3.3,3.3,0,0,1,1,.94,7.34,7.34,0,0,1,.69,1.31,10.89,10.89,0,0,0,.7,1.47q.1.21.42,1c.21.54.44,1.13.68,1.78s.48,1.26.71,1.83.37,1,.44,1.13c1-1.15,2-2.37,3-3.64a32.85,32.85,0,0,1,3.06-3.53,14.67,14.67,0,0,1,3.61-2.68,10.1,10.1,0,0,1,4.71-1.05,27.45,27.45,0,0,1,5.06.43,21.14,21.14,0,0,1,4.21,1.23,23,23,0,0,1,4,2.07q2,1.25,4.27,2.93c2.41,1.29,2.87,3.21,1.36,5.76l-4.76,8.11a4.26,4.26,0,0,1-2.57,1.94,4.9,4.9,0,0,1-3.3-.47,16.24,16.24,0,0,0-4.58-3.27,12.47,12.47,0,0,0-5.31-1.08,10.13,10.13,0,0,0-3.59.58,9.66,9.66,0,0,0-2.8,1.62,15.38,15.38,0,0,0-2.36,2.51c-.73,1-1.47,2.07-2.2,3.25V82.27a4.27,4.27,0,0,1-1,3,4.32,4.32,0,0,1-3.22,1H676.51c-2.72,0-4.08-1.35-4.08-4Z"/><path d="M783.34,78.34A35.17,35.17,0,0,1,773,85a31.58,31.58,0,0,1-12.2,2.38A35.61,35.61,0,0,1,736,77.47a34.65,34.65,0,0,1-7.65-10.92,32.94,32.94,0,0,1-2.83-13.66,35.53,35.53,0,0,1,4.32-17,34.79,34.79,0,0,1,5-6.94,31.64,31.64,0,0,1,6.63-5.42,32.3,32.3,0,0,1,17-4.77,30.8,30.8,0,0,1,8.43,1.16,33.24,33.24,0,0,1,7.68,3.24,33.7,33.7,0,0,1,6.57,5,34.12,34.12,0,0,1,5.13,6.42A30.8,30.8,0,0,1,789.64,42a28.22,28.22,0,0,1,1.18,8.14c0,1.82,0,3.31-.08,4.46a5,5,0,0,1-.81,2.75,4,4,0,0,1-2.43,1.41,24,24,0,0,1-5,.39H744.79a13,13,0,0,0,2.13,5.61,13.32,13.32,0,0,0,3.69,3.58,14.59,14.59,0,0,0,4.45,1.91,18.45,18.45,0,0,0,4.45.58,19.35,19.35,0,0,0,3.87-.4,26.91,26.91,0,0,0,3.85-1,22.22,22.22,0,0,0,3.41-1.52,11.13,11.13,0,0,0,2.48-1.81,11.8,11.8,0,0,1,1.44-1,2.64,2.64,0,0,1,1.29-.34,2.51,2.51,0,0,1,1.38.47,10.86,10.86,0,0,1,1.6,1.36l5.55,6.29a3.27,3.27,0,0,1,.73,1.23,3.89,3.89,0,0,1,.16,1.12A2.94,2.94,0,0,1,784.7,77,6.91,6.91,0,0,1,783.34,78.34ZM758.15,34.72a10.06,10.06,0,0,0-4,.81,14.7,14.7,0,0,0-3.58,2.17,18.34,18.34,0,0,0-3,3.09,19.26,19.26,0,0,0-2.18,3.51h26.76a31.05,31.05,0,0,0-2.38-3.77,16.9,16.9,0,0,0-2.93-3,12.93,12.93,0,0,0-3.77-2A15.18,15.18,0,0,0,758.15,34.72Z"/><path d="M848.63,78.18c-.94.94-2,2-3.11,3a30.61,30.61,0,0,1-3.75,3,21,21,0,0,1-4.39,2.33,13.76,13.76,0,0,1-5.08.92,31.86,31.86,0,0,1-13.12-2.67,31.5,31.5,0,0,1-10.32-7.3,33.59,33.59,0,0,1-6.75-10.92,37,37,0,0,1-2.44-13.51,36.89,36.89,0,0,1,2.44-13.54,33.67,33.67,0,0,1,6.75-10.89,31,31,0,0,1,10.32-7.28,32.18,32.18,0,0,1,13.12-2.65,15.48,15.48,0,0,1,5.26.85,18.87,18.87,0,0,1,4.34,2.14,23.5,23.5,0,0,1,3.62,3q1.65,1.65,3.11,3.22V4a4.12,4.12,0,0,1,1-2.83A3.91,3.91,0,0,1,852.72,0H864.5a4.15,4.15,0,0,1,1.44.29,4.87,4.87,0,0,1,1.39.81,4.49,4.49,0,0,1,1,1.26A3.4,3.4,0,0,1,868.74,4V82.27c0,2.68-1.41,4-4.24,4H854.23a4,4,0,0,1-1.62-.27,2.51,2.51,0,0,1-1-.75,4.84,4.84,0,0,1-.71-1.26c-.21-.51-.48-1.09-.79-1.75ZM818.52,53.1a19.06,19.06,0,0,0,1.08,6.47,15.3,15.3,0,0,0,3.06,5.21,14.53,14.53,0,0,0,11,4.76,16.58,16.58,0,0,0,6.3-1.2A16.14,16.14,0,0,0,845.12,65a16.55,16.55,0,0,0,5-11.18V53.1a16.65,16.65,0,0,0-1.25-6.39,17,17,0,0,0-3.49-5.34,16.45,16.45,0,0,0-5.23-3.64,16,16,0,0,0-6.52-1.34,14.27,14.27,0,0,0-6.21,1.34,14.45,14.45,0,0,0-4.79,3.64,16.3,16.3,0,0,0-3.06,5.34A18.89,18.89,0,0,0,818.52,53.1Z"/><path d="M455.69,136.51a2.12,2.12,0,0,1,.71-1.67,2.57,2.57,0,0,1,1.76-.63H514.5a2.62,2.62,0,0,1,1.68.58,2.39,2.39,0,0,1,.84,1.72v13a2.92,2.92,0,0,1-.66,1.8,2.22,2.22,0,0,1-1.86.86H496.44V209.5a2.51,2.51,0,0,1-.68,1.71A2.28,2.28,0,0,1,494,212H478.63a2.49,2.49,0,0,1-1.68-.71,2.26,2.26,0,0,1-.78-1.76V152.17h-18a2.43,2.43,0,0,1-1.76-.68,2.62,2.62,0,0,1-.71-2Z"/><path d="M518.17,178.77a34.08,34.08,0,0,1,10-24.43,33.22,33.22,0,0,1,6.93-5.31,35.09,35.09,0,0,1,17.49-4.61,34.11,34.11,0,0,1,24.27,9.92,34.4,34.4,0,0,1,7.33,10.9,33.77,33.77,0,0,1,2.7,13.53,34.34,34.34,0,0,1-1.23,9.24,34.89,34.89,0,0,1-3.45,8.25,34.08,34.08,0,0,1-5.35,6.94,33.15,33.15,0,0,1-6.94,5.34,34.11,34.11,0,0,1-17.33,4.63,35.15,35.15,0,0,1-9.24-1.2,34.19,34.19,0,0,1-8.25-3.43,33.35,33.35,0,0,1-6.93-5.34,34.08,34.08,0,0,1-5.35-6.94A34.89,34.89,0,0,1,519.4,188,34.34,34.34,0,0,1,518.17,178.77Zm19.11,0a19.06,19.06,0,0,0,1.08,6.47,15.47,15.47,0,0,0,3,5.21,14.28,14.28,0,0,0,4.77,3.48,14.87,14.87,0,0,0,6.3,1.28,14.29,14.29,0,0,0,6.16-1.28,13.94,13.94,0,0,0,4.66-3.48,15.43,15.43,0,0,0,2.93-5.21,20.78,20.78,0,0,0,0-12.86,16.67,16.67,0,0,0-2.93-5.34,13.67,13.67,0,0,0-10.82-5,14.13,14.13,0,0,0-11.07,5,16.7,16.7,0,0,0-3,5.34A19,19,0,0,0,537.28,178.77Z"/><path d="M659.08,211.08a3.31,3.31,0,0,1-1.44.74,6.82,6.82,0,0,1-1.44.16h-7.91a3.59,3.59,0,0,1-1.63-.35,3.52,3.52,0,0,1-1.15-.91,5.61,5.61,0,0,1-.78-1.3,11.38,11.38,0,0,1-.53-1.52l-1.62-6.68a24.84,24.84,0,0,1-2.28,3.68,19.41,19.41,0,0,1-3.79,3.86,21.37,21.37,0,0,1-5.5,3,20.29,20.29,0,0,1-7.33,1.23,24.74,24.74,0,0,1-19.14-8.59,28.78,28.78,0,0,1-5.32-9.3,33.8,33.8,0,0,1-1.88-11.33V149.5a4.58,4.58,0,0,1,.86-3,3.43,3.43,0,0,1,2.75-1h12.1a4.67,4.67,0,0,1,3.09.76,4,4,0,0,1,.84,3v34.13a9.48,9.48,0,0,0,1,4.27,12.85,12.85,0,0,0,2.7,3.56,13.21,13.21,0,0,0,3.8,2.44,11.1,11.1,0,0,0,4.32.89,9.66,9.66,0,0,0,3.9-.89,14.74,14.74,0,0,0,3.72-2.39,12.61,12.61,0,0,0,2.8-3.51,8.82,8.82,0,0,0,1.1-4.27V149.35a4.94,4.94,0,0,1,.34-1.79,2.86,2.86,0,0,1,1-1.36,4.55,4.55,0,0,1,1.28-.57,5.31,5.31,0,0,1,1.39-.16H656.2a4.16,4.16,0,0,1,3.24,1.1,4.21,4.21,0,0,1,1,2.93v58.6a3.79,3.79,0,0,1-.45,1.83,3.24,3.24,0,0,1-1.23,1.31Z"/><path d="M715.58,191.5a3.68,3.68,0,0,1,1.38-.66,5.39,5.39,0,0,1,1-.13,3.52,3.52,0,0,1,1.63.37,4.3,4.3,0,0,1,1.52,1.57L727,201.5a7.48,7.48,0,0,1,.5.94,2.32,2.32,0,0,1,.23.84,2.64,2.64,0,0,1-.76,2,9.67,9.67,0,0,1-1.65,1.34,39.57,39.57,0,0,1-9.39,4.79,32.33,32.33,0,0,1-10.82,1.8A34.12,34.12,0,0,1,696,212a33.48,33.48,0,0,1-8.15-3.43A35.18,35.18,0,0,1,681,203.2a33,33,0,0,1-5.34-6.94,35.69,35.69,0,0,1-3.43-8.25,35.43,35.43,0,0,1,0-18.51,35.51,35.51,0,0,1,3.43-8.25,33.61,33.61,0,0,1,5.34-6.91,35,35,0,0,1,6.91-5.31,34.34,34.34,0,0,1,17.23-4.61,35.16,35.16,0,0,1,10.55,1.52,32.68,32.68,0,0,1,9.09,4.5l-.16-.15a6.14,6.14,0,0,1,1.84,1.59,3.74,3.74,0,0,1,.68,2.28,3.64,3.64,0,0,1-.63,1.94l-4.66,7.9q-1.47,2.56-3.56,2.57a3.52,3.52,0,0,1-1.15-.24,5.83,5.83,0,0,1-1.52-.81,23.88,23.88,0,0,0-5-2.48,16.17,16.17,0,0,0-5.63-1,13.85,13.85,0,0,0-6.08,1.33,14.25,14.25,0,0,0-4.73,3.64,17.38,17.38,0,0,0-3.07,5.34,19.34,19.34,0,0,0,0,12.86,16.07,16.07,0,0,0,3.07,5.21A14.27,14.27,0,0,0,705,195.21a14.87,14.87,0,0,0,5.6-1A26,26,0,0,0,715.58,191.5Z"/><path d="M757.78,152.46a22.16,22.16,0,0,1,2.41-2.9,16.13,16.13,0,0,1,3.33-2.56,19.26,19.26,0,0,1,4.34-1.82,19.89,19.89,0,0,1,5.53-.71,23.88,23.88,0,0,1,10.65,2.3,23.59,23.59,0,0,1,8,6.27,27.74,27.74,0,0,1,5,9.27,37.06,37.06,0,0,1,1.7,11.33v34.3a4.52,4.52,0,0,1-.87,3,3.4,3.4,0,0,1-2.75,1H783a4.67,4.67,0,0,1-3.09-.76,4,4,0,0,1-.84-3V173.64a10.26,10.26,0,0,0-.86-4.19,11.14,11.14,0,0,0-2.33-3.38,10.64,10.64,0,0,0-3.43-2.25,10.82,10.82,0,0,0-4.16-.81,9.34,9.34,0,0,0-3.69.76,10.46,10.46,0,0,0-3.25,2.15,11.86,11.86,0,0,0-2.41,3.32,11.16,11.16,0,0,0-1.13,4.3V208.1a4.83,4.83,0,0,1-.34,1.77,2.89,2.89,0,0,1-1,1.37,4.55,4.55,0,0,1-1.28.57,5.31,5.31,0,0,1-1.39.16H741.92a3.69,3.69,0,0,1-4.25-4V129.68a4.15,4.15,0,0,1,1-2.88,4.21,4.21,0,0,1,3.25-1.1h11.83a5.49,5.49,0,0,1,2.67.84,2.86,2.86,0,0,1,1,1.36,4.7,4.7,0,0,1,.34,1.68Z"/><path d="M455.69,262.19a2.68,2.68,0,0,1,.66-1.6,2,2,0,0,1,1.6-.71H473.5a2.65,2.65,0,0,1,1.62.66,2,2,0,0,1,.84,1.65v24.87h26V262.19a2.27,2.27,0,0,1,.66-1.63,2.24,2.24,0,0,1,1.69-.68h15.31a3.24,3.24,0,0,1,1.82.52,1.86,1.86,0,0,1,.79,1.68v73.26a2.16,2.16,0,0,1-.68,1.73,2.66,2.66,0,0,1-1.78.57H504.33a2.47,2.47,0,0,1-1.69-.57,2.18,2.18,0,0,1-.66-1.73V305.59H476v29.75a2.12,2.12,0,0,1-.71,1.7,2.86,2.86,0,0,1-1.91.6H458c-1.47,0-2.22-.68-2.26-2Z"/><path d="M592.94,329.68a34.87,34.87,0,0,1-10.37,6.63,31.77,31.77,0,0,1-12.2,2.38,35.66,35.66,0,0,1-24.77-9.87A34.74,34.74,0,0,1,538,317.9a32.86,32.86,0,0,1-2.83-13.67,35.53,35.53,0,0,1,4.32-17,34.44,34.44,0,0,1,5-6.93,32.19,32.19,0,0,1,23.64-10.19,30.8,30.8,0,0,1,8.43,1.15,32.76,32.76,0,0,1,7.67,3.25,33.31,33.31,0,0,1,6.57,5,34.19,34.19,0,0,1,5.14,6.41,31.08,31.08,0,0,1,3.32,7.44,28.17,28.17,0,0,1,1.18,8.14c0,1.81,0,3.3-.08,4.45a5,5,0,0,1-.81,2.75,3.94,3.94,0,0,1-2.44,1.41,23.15,23.15,0,0,1-5,.4H554.4a13.09,13.09,0,0,0,2.12,5.6,13.5,13.5,0,0,0,3.69,3.59,14.94,14.94,0,0,0,4.45,1.91,19,19,0,0,0,4.45.57,20.18,20.18,0,0,0,3.88-.39,26.94,26.94,0,0,0,3.85-1.05,21.66,21.66,0,0,0,3.4-1.51,11.45,11.45,0,0,0,2.49-1.81,11.8,11.8,0,0,1,1.44-1,2.37,2.37,0,0,1,2.67.13,10.66,10.66,0,0,1,1.6,1.36l5.55,6.28a3.58,3.58,0,0,1,.73,1.23,4.28,4.28,0,0,1,.16,1.13,2.88,2.88,0,0,1-.58,1.81A6.6,6.6,0,0,1,592.94,329.68Zm-25.19-43.62a10,10,0,0,0-4,.81,14.8,14.8,0,0,0-3.59,2.18,18.35,18.35,0,0,0-3,3.09,19.12,19.12,0,0,0-2.17,3.5h26.76a31.1,31.1,0,0,0-2.39-3.77,15.89,15.89,0,0,0-2.93-3,12.7,12.7,0,0,0-3.77-2A15.36,15.36,0,0,0,567.75,286.06Z"/><path d="M679.81,333.77a4.7,4.7,0,0,1-.31,1.7,2.59,2.59,0,0,1-1,1.28,2.53,2.53,0,0,1-1.36.73,6.7,6.7,0,0,1-1.36.16H665.41a4.69,4.69,0,0,1-1.78-.29,2.75,2.75,0,0,1-1.1-.81,4.57,4.57,0,0,1-.7-1.28c-.2-.51-.4-1.06-.61-1.65l-1.52-3.93q-1.41,1.43-3.08,3a27.91,27.91,0,0,1-3.7,3,21.82,21.82,0,0,1-4.37,2.28,13.78,13.78,0,0,1-5,.91,34.33,34.33,0,0,1-9.13-1.2,33.78,33.78,0,0,1-8.17-3.43,33.38,33.38,0,0,1-6.89-5.34,34.25,34.25,0,0,1-5.31-6.94,33.73,33.73,0,0,1-3.43-8.24,34.87,34.87,0,0,1-1.21-9.25,33.91,33.91,0,0,1,34.14-34.35,17.55,17.55,0,0,1,6,1,20.28,20.28,0,0,1,5,2.54,25,25,0,0,1,4,3.56,41.46,41.46,0,0,1,3.22,4l2-6.33c.35-.87.63-1.58.86-2.13a3.94,3.94,0,0,1,.73-1.2,2,2,0,0,1,1-.52,7.67,7.67,0,0,1,1.63-.13h7.8a7.39,7.39,0,0,1,1.36.15,2.61,2.61,0,0,1,1.36.74,3.32,3.32,0,0,1,1,1.31,4.18,4.18,0,0,1,.31,1.67Zm-51.58-29.33a19.06,19.06,0,0,0,1.08,6.47,15.21,15.21,0,0,0,3.06,5.21,14.42,14.42,0,0,0,4.79,3.48,14.68,14.68,0,0,0,6.21,1.28,16.54,16.54,0,0,0,11.75-4.76,15.75,15.75,0,0,0,3.49-5.21,16.94,16.94,0,0,0-3.49-18.2,16.61,16.61,0,0,0-5.23-3.64,15.94,15.94,0,0,0-6.52-1.33,14.26,14.26,0,0,0-6.21,1.33,14.58,14.58,0,0,0-4.79,3.64,16.4,16.4,0,0,0-3.06,5.34A19,19,0,0,0,628.23,304.44Z"/><path d="M692.38,255.38a4.74,4.74,0,0,1,.83-2.83,3.35,3.35,0,0,1,2.88-1.15h12.84a2.45,2.45,0,0,1,1.09.28,4,4,0,0,1,1.08.82,4.89,4.89,0,0,1,.84,1.25,4,4,0,0,1,.34,1.63v78.23a3.86,3.86,0,0,1-1.13,3,4.16,4.16,0,0,1-2.9,1H696.09a3.57,3.57,0,0,1-2.88-1,4.7,4.7,0,0,1-.83-3Z"/><path d="M724.79,248.73a4.23,4.23,0,0,1,.94-3.12,4.09,4.09,0,0,1,2.94-.91h12.15a4.52,4.52,0,0,1,2.95.91,3.81,3.81,0,0,1,1.13,3.12v10.21a3.78,3.78,0,0,1-.29,1.36,5.58,5.58,0,0,1-.81,1.41,4.38,4.38,0,0,1-1.29,1.13,3.33,3.33,0,0,1-1.69.44H728.67q-3.88,0-3.88-4.34Zm0,26.49a4.51,4.51,0,0,1,.94-2.88,3.51,3.51,0,0,1,2.94-1.2h12a3.78,3.78,0,0,1,1.36.29,4.69,4.69,0,0,1,1.36.83,5.33,5.33,0,0,1,1.07,1.29,3.12,3.12,0,0,1,.45,1.67v58.39a3.91,3.91,0,0,1-1.1,3,4.44,4.44,0,0,1-3.14,1h-12q-3.88,0-3.88-4Z"/><path d="M758.83,272.08a3.21,3.21,0,0,1,1.44-.74,7.38,7.38,0,0,1,1.44-.16h7.9a3.73,3.73,0,0,1,1.63.34,3.68,3.68,0,0,1,1.15.92,5.11,5.11,0,0,1,.76,1.31c.19.49.37,1,.55,1.51l1.62,6.69a25.75,25.75,0,0,1,2.28-3.69,19.47,19.47,0,0,1,3.8-3.86,21.33,21.33,0,0,1,5.47-3,20.22,20.22,0,0,1,7.35-1.22,25.09,25.09,0,0,1,10.84,2.29,24.77,24.77,0,0,1,8.3,6.27,28.74,28.74,0,0,1,5.32,9.27,33.55,33.55,0,0,1,1.88,11.33v34.3a4.52,4.52,0,0,1-.86,3,3.41,3.41,0,0,1-2.75,1H804.86a4.63,4.63,0,0,1-3.09-.76,4,4,0,0,1-.84-3V299.83a9.36,9.36,0,0,0-1-4.27,12.43,12.43,0,0,0-2.7-3.55,12.87,12.87,0,0,0-3.8-2.44,11.1,11.1,0,0,0-4.32-.89,9.78,9.78,0,0,0-3.85.84,12.81,12.81,0,0,0-3.61,2.33,13.27,13.27,0,0,0-2.77,3.51,10.32,10.32,0,0,0-1.29,4.37v34a4.93,4.93,0,0,1-.34,1.78,2.91,2.91,0,0,1-1,1.36,4.55,4.55,0,0,1-1.28.57,5.31,5.31,0,0,1-1.39.16H761.71a3.69,3.69,0,0,1-4.25-4V275.05a3.81,3.81,0,0,1,.45-1.83,3.35,3.35,0,0,1,1.23-1.3Z"/><path d="M880.26,335.34a12.75,12.75,0,0,0,.55-4.06c0-1.52,0-3.06,0-4.64q-1.51,1.64-3.09,3.43a27,27,0,0,1-3.48,3.36,17.4,17.4,0,0,1-4.32,2.53,14.5,14.5,0,0,1-5.6,1,34.83,34.83,0,0,1-13.09-2.41,31.08,31.08,0,0,1-10.42-6.73,30.27,30.27,0,0,1-6.86-10.34,34.54,34.54,0,0,1-2.46-13.25,36.17,36.17,0,0,1,2.46-13.43,33.26,33.26,0,0,1,6.86-10.89,31.73,31.73,0,0,1,10.42-7.28A32.24,32.24,0,0,1,864.29,270a16.2,16.2,0,0,1,5.83,1,19.52,19.52,0,0,1,4.72,2.57,25.39,25.39,0,0,1,3.87,3.53q1.75,2,3.33,3.9l2-6.23.57-1.62a4,4,0,0,1,.69-1.23,2.47,2.47,0,0,1,1.07-.76,4.53,4.53,0,0,1,1.7-.26h7.8a7,7,0,0,1,1.34.15,2.6,2.6,0,0,1,1.33.74,3.91,3.91,0,0,1,1.1,1.26,3.51,3.51,0,0,1,.37,1.72v53.31a37.5,37.5,0,0,1-2.67,14.56,30.63,30.63,0,0,1-18.27,17.49,39.74,39.74,0,0,1-13.62,2.3,40.32,40.32,0,0,1-6.07-.5,44.82,44.82,0,0,1-6.47-1.49,39.14,39.14,0,0,1-6.23-2.54,25.68,25.68,0,0,1-5.32-3.59,5.46,5.46,0,0,1-1.1-1.1,3.79,3.79,0,0,1-.65-1.41,4.05,4.05,0,0,1,0-1.7,5.25,5.25,0,0,1,.86-1.91l5-6.86a4.17,4.17,0,0,1,2.56-1.57,4.81,4.81,0,0,1,3,1.25,10.53,10.53,0,0,0,3,2,20.76,20.76,0,0,0,3.51,1.2,21.46,21.46,0,0,0,3.56.58c1.17.09,2.22.13,3.17.13a20.62,20.62,0,0,0,4.92-.63,19.53,19.53,0,0,0,4.79-1.86,16.41,16.41,0,0,0,3.93-3A9.52,9.52,0,0,0,880.26,335.34Zm-30-31.11a19.18,19.18,0,0,0,1.07,6.52,15.27,15.27,0,0,0,3.06,5.21,14.27,14.27,0,0,0,4.8,3.46,14.9,14.9,0,0,0,6.2,1.25,17,17,0,0,0,6.31-1.17,16.21,16.21,0,0,0,5.16-3.27,16.64,16.64,0,0,0,3.53-4.93,16.07,16.07,0,0,0,1.5-6.12v-1.73a16.09,16.09,0,0,0-1.5-6.05,17.5,17.5,0,0,0-3.53-5,16.86,16.86,0,0,0-5.16-3.45,15.62,15.62,0,0,0-6.31-1.29,14.19,14.19,0,0,0-6.2,1.34,15,15,0,0,0-4.8,3.58,16,16,0,0,0-3.06,5.29A19,19,0,0,0,850.31,304.23Z"/></g></g></svg>