<svg xmlns="http://www.w3.org/2000/svg" viewBox="0 0 900 899.79"><defs><style>.cls-1{fill:#c31c4a;}</style></defs><title>Recurso 1</title><g id="Capa_2" data-name="Capa 2"><g id="Capa_1-2" data-name="Capa 1"><path class="cls-1" d="M636.27,509.72c-.43-20.59-13.6-48.71-29.67-61.58a78.45,78.45,0,0,0-58.09-16.86,66.23,66.23,0,0,0-58.45,73.06,55,55,0,0,0,12.41,29.44A55.83,55.83,0,0,0,547,554a3.32,3.32,0,0,0,3.16-3.34V527.42a3.3,3.3,0,0,0-3.29-3.3c-6.14-.06-12.87-2-17.44-5.69A25.77,25.77,0,0,1,519.86,501a36.29,36.29,0,0,1,14.37-33.11c4.31-3.3,12.46-6.31,17.85-6.88a49.07,49.07,0,0,1,44.34,19.22c4.74,6.1,8.91,17.65,9.61,25.35a64.57,64.57,0,0,1-14.37,47c-11.94,14.63-37.47,24.75-56.33,23.92A85.09,85.09,0,0,1,454.7,501a108.47,108.47,0,0,1-.68-11v-.14a110.07,110.07,0,0,1,93.31-109.6,3.3,3.3,0,0,0,2.84-3.25V353.44a3.34,3.34,0,0,0-3.76-3.32c-35.74,4.92-69.15,23.17-91.7,51.37A141.77,141.77,0,0,0,439,425.85a141.11,141.11,0,0,0-15.67-24.36c-22.56-28.2-56-46.45-91.7-51.37a3.33,3.33,0,0,0-3.76,3.32V377a3.3,3.3,0,0,0,2.83,3.25,110.07,110.07,0,0,1,93.32,109.6V490c0,3.65-.27,7.34-.68,11a85.09,85.09,0,0,1-80.63,75.5c-18.87.83-44.39-9.29-56.33-23.92a64.62,64.62,0,0,1-14.38-47c.71-7.7,4.88-19.25,9.61-25.35A49.09,49.09,0,0,1,326,461.05c5.39.57,13.54,3.58,17.84,6.88A36.28,36.28,0,0,1,358.21,501a25.77,25.77,0,0,1-9.58,17.39c-4.58,3.66-11.31,5.63-17.44,5.69a3.3,3.3,0,0,0-3.29,3.3v23.27a3.32,3.32,0,0,0,3.16,3.34,55.84,55.84,0,0,0,44.54-20.25A54.89,54.89,0,0,0,388,504.34a66.23,66.23,0,0,0-58.45-73.06,78.46,78.46,0,0,0-58.09,16.86c-16.06,12.87-29.24,41-29.66,61.58,0,.66,0,1.32,0,2,0,28,12.26,54.61,34.93,73.51a93.08,93.08,0,0,0,49.54,20.67A115.09,115.09,0,0,0,439,548.11a115.11,115.11,0,0,0,112.79,57.77,93.08,93.08,0,0,0,49.54-20.67c22.67-18.9,34.93-45.54,34.93-73.51C636.29,511,636.29,510.38,636.27,509.72Z"/><path class="cls-1" d="M441.06,374.89a3.32,3.32,0,0,1-4.05,0l-7.11-5.47a85,85,0,0,1,0-135L437,229a3.32,3.32,0,0,1,4.05,0l7.11,5.47a85,85,0,0,1,0,135Zm.76-104.19a3.38,3.38,0,0,0-5.57,0,55.08,55.08,0,0,0,0,62.46,3.38,3.38,0,0,0,5.57,0,55.12,55.12,0,0,0,0-62.46Z"/><path d="M125.05,740.72c.07.72.14,1.72.25,2.9a28.08,28.08,0,0,0,.61,3.91,22.83,22.83,0,0,0,1.83,5.56,13.9,13.9,0,0,0,3.19,4.48,15.14,15.14,0,0,0,3.54,2.61,6.73,6.73,0,0,0,3.09.79,5.55,5.55,0,0,0,2.65-.57,8.15,8.15,0,0,0,2.19-1.69,4,4,0,0,0,1.14-2.86,14.77,14.77,0,0,0-.57-3.66,22.26,22.26,0,0,0-1.51-3.73c-.57-1.22-1.11-2.26-1.54-3.12a79.6,79.6,0,0,1-4.51-10.82,33.39,33.39,0,0,1-1.69-9.35,21.62,21.62,0,0,1,1.36-8.1,20.71,20.71,0,0,1,4.63-6.92,18.93,18.93,0,0,1,7.34-4.91,19.55,19.55,0,0,1,8.64-1,26.58,26.58,0,0,1,9.14,2.9A38.5,38.5,0,0,1,174,714a40.06,40.06,0,0,1,5.74,6.95,35.26,35.26,0,0,1,3.72,8.32c.36,1.29.65,2.58.9,3.83s.39,2.4.5,3.44a15.56,15.56,0,0,1,0,2.69,2.61,2.61,0,0,1-.64,1.65,2.11,2.11,0,0,1-1,.68,12.8,12.8,0,0,1-1.65.21l-11.43.54a2.42,2.42,0,0,1-1.9-.61,2,2,0,0,1-.61-1.18,6.94,6.94,0,0,1-.22-1.65l-.1-.61c-.07-.93-.22-1.86-.4-2.9a19.61,19.61,0,0,0-2-6.06,10.49,10.49,0,0,0-2-2.61,15.73,15.73,0,0,0-2.44-2,9.6,9.6,0,0,0-2.54-1.18,5.32,5.32,0,0,0-2.41-.11,4.85,4.85,0,0,0-2.18,1.32,4.16,4.16,0,0,0-1.22,2.3,8.26,8.26,0,0,0,.18,2.9,21,21,0,0,0,1.4,3.69c.64,1.36,1.43,2.94,2.4,4.7,1.75,3.4,3.29,6.59,4.55,9.71a33.75,33.75,0,0,1,2.47,8.85,19.56,19.56,0,0,1-.75,8.28,20.24,20.24,0,0,1-5,7.85,22.36,22.36,0,0,1-8.82,5.74,22.94,22.94,0,0,1-10,1.21,28.21,28.21,0,0,1-10.33-3,39.14,39.14,0,0,1-9.64-6.84,34.23,34.23,0,0,1-6.88-9.61,46,46,0,0,1-3.69-11.5,26.28,26.28,0,0,1-.43-4.52c0-1.32,0-2.4,0-3.22V741a.16.16,0,0,1,0-.11s0-.1,0-.17a.11.11,0,0,0,0-.15v-.14a3.48,3.48,0,0,1,.57-2.3,2.91,2.91,0,0,1,2.23-.57l12.25.07a3.68,3.68,0,0,1,1.8.65,2,2,0,0,1,.5.93A10.08,10.08,0,0,1,125.05,740.72Z"/><path d="M211.28,835.7a4.73,4.73,0,0,1-1.18,1.18,2.58,2.58,0,0,1-1.58.5,2.93,2.93,0,0,1-1.5-.14c-.47-.25-.86-.43-1.22-.64l-8.35-5.7a4,4,0,0,1-1.26-1.19,3.29,3.29,0,0,1-.5-1.29,7.74,7.74,0,0,1,.14-1.43c.11-.54.29-1.08.4-1.68l.93-4c-1.25.25-2.65.5-4.12.75a39.42,39.42,0,0,1-4.63.4,24.31,24.31,0,0,1-4.8-.58,14.33,14.33,0,0,1-4.59-2,32.82,32.82,0,0,1-14.15-21.47,32.12,32.12,0,0,1-.5-8.53,32.61,32.61,0,0,1,1.75-8.64,34.91,34.91,0,0,1,4.09-8.17,33.75,33.75,0,0,1,9.6-9.53,34.14,34.14,0,0,1,11.94-4.84A33.28,33.28,0,0,1,216.8,764a18.24,18.24,0,0,1,4.37,4.08,20.11,20.11,0,0,1,2.58,4.8,22.65,22.65,0,0,1,1.33,5.13,34.89,34.89,0,0,1,.36,5l5.16-4c.75-.53,1.4-1,1.9-1.25a4.28,4.28,0,0,1,1.22-.57,1.93,1.93,0,0,1,1.11.1,6.94,6.94,0,0,1,1.36.79l6.34,4.27a8.84,8.84,0,0,1,1,.89,3.09,3.09,0,0,1,.72,1.36,3.67,3.67,0,0,1,.11,1.62,4,4,0,0,1-.68,1.54Zm-25.77-52.29a19.15,19.15,0,0,0-2.65,5.88,15,15,0,0,0-.39,5.91,13.58,13.58,0,0,0,2,5.48,14.89,14.89,0,0,0,4.3,4.45,17.41,17.41,0,0,0,6,2.58,17.23,17.23,0,0,0,6.2,0,15.25,15.25,0,0,0,5.63-2.33,14.64,14.64,0,0,0,4.62-4.55,16.78,16.78,0,0,0,2.51-5.88,18.63,18.63,0,0,0,.11-6.27,17.85,17.85,0,0,0-2.26-5.84,15.67,15.67,0,0,0-4.59-4.66,13.87,13.87,0,0,0-11.61-2,15.7,15.7,0,0,0-5.45,2.66A18.9,18.9,0,0,0,185.51,783.41Z"/><path d="M273.54,846.92a3.39,3.39,0,0,1,1.5-.07,6.76,6.76,0,0,1,1,.32,3.64,3.64,0,0,1,1.33,1,4.1,4.1,0,0,1,.71,2l1.72,10.32a5,5,0,0,1,0,1,1.75,1.75,0,0,1-.11.83,2.92,2.92,0,0,1-1.47,1.47,10.37,10.37,0,0,1-2,.5,36.79,36.79,0,0,1-10.35.54,31.86,31.86,0,0,1-10.4-2.73,36.19,36.19,0,0,1-7.67-4.73,35,35,0,0,1-5.91-6.34,33.48,33.48,0,0,1-4-7.6,31.44,31.44,0,0,1-2-8.31,34.21,34.21,0,0,1,.25-8.79,32.35,32.35,0,0,1,2.65-8.74,33.15,33.15,0,0,1,4.8-7.81,33.92,33.92,0,0,1,6.38-6,36.26,36.26,0,0,1,7.57-4,34,34,0,0,1,8.35-2,35.24,35.24,0,0,1,8.63.25,31,31,0,0,1,8.61,2.59,35,35,0,0,1,8.85,5.55,33.07,33.07,0,0,1,6.31,7.74l-.07-.21a5.72,5.72,0,0,1,1,2.15,3.71,3.71,0,0,1-.32,2.33,3.65,3.65,0,0,1-1.33,1.47l-7.35,5.19c-1.57,1.15-3,1.4-4.23.86a3.3,3.3,0,0,1-1-.68,6.5,6.5,0,0,1-1-1.29,21.82,21.82,0,0,0-3.44-4.23,15.32,15.32,0,0,0-4.66-3.15,13.44,13.44,0,0,0-5.95-1.22,13.1,13.1,0,0,0-5.7,1.33,18.11,18.11,0,0,0-8.42,8.85,17.07,17.07,0,0,0-1.65,6.24,15.87,15.87,0,0,0,.65,5.87,14.27,14.27,0,0,0,2.87,5,14,14,0,0,0,4.91,3.62,14.67,14.67,0,0,0,5.44,1.29A28.19,28.19,0,0,0,273.54,846.92Z"/><path d="M307.69,816a3.58,3.58,0,0,1,2.08-2.44,4.53,4.53,0,0,1,2.9-.11l7.5,2.12a2.6,2.6,0,0,1,1.36.78,3,3,0,0,1,.68,1.12,6.43,6.43,0,0,1,.25,1.39,9.25,9.25,0,0,0,.29,1.58,9.85,9.85,0,0,1,.1,1.11c.08.58.11,1.18.18,1.83s.15,1.36.18,2,.11,1,.11,1.11a44,44,0,0,0,3.83-2.61,41.61,41.61,0,0,1,3.84-2.48,14.67,14.67,0,0,1,4.16-1.57,9.51,9.51,0,0,1,4.69.25,24.67,24.67,0,0,1,4.66,1.79,20.68,20.68,0,0,1,3.69,2.26,24.61,24.61,0,0,1,3.16,3c1,1.14,2.08,2.43,3.26,3.9,1.93,1.87,1.79,3.8-.29,5.81l-6.66,6.38a4.29,4.29,0,0,1-2.94,1.15,4.61,4.61,0,0,1-3-1.33,17.94,17.94,0,0,0-3.47-4.34,13.14,13.14,0,0,0-4.7-2.4,9.18,9.18,0,0,0-3.55-.39,8.4,8.4,0,0,0-3.12.75,15.83,15.83,0,0,0-2.9,1.76c-.93.71-1.9,1.54-2.94,2.43l-10.14,35.81a4.51,4.51,0,0,1-1.72,2.58,4.32,4.32,0,0,1-3.33.11l-11.12-3.16c-2.58-.71-3.51-2.36-2.79-4.87Z"/><path d="M403.71,890.36a34.37,34.37,0,0,1-10.9,5.09,32.76,32.76,0,0,1-12.22.75,35.4,35.4,0,0,1-12.83-4.3,34,34,0,0,1-16-20.11,32.19,32.19,0,0,1-1-13.65,35.94,35.94,0,0,1,2.23-8.53,37.72,37.72,0,0,1,4.15-7.46,33.22,33.22,0,0,1,5.81-6.09,32.23,32.23,0,0,1,7.13-4.48,34.59,34.59,0,0,1,8.21-2.33,29.85,29.85,0,0,1,9-.07,30.29,30.29,0,0,1,8.06,2.18,31.48,31.48,0,0,1,7,4.16,31.09,31.09,0,0,1,5.73,5.73,31.44,31.44,0,0,1,4.2,6.92,33.16,33.16,0,0,1,2.29,7.67,27.34,27.34,0,0,1,.07,8,43.89,43.89,0,0,1-.68,4.34,4.9,4.9,0,0,1-1.11,2.54,3.79,3.79,0,0,1-2.54,1.11,29.3,29.3,0,0,1-4.92-.25l-36.7-4.87a13.41,13.41,0,0,0,1.37,5.73,13.27,13.27,0,0,0,3.11,4,15.13,15.13,0,0,0,4.05,2.4,19.55,19.55,0,0,0,4.27,1.11,16.82,16.82,0,0,0,3.83.11,20.07,20.07,0,0,0,3.87-.5,25.86,25.86,0,0,0,3.55-1,13.08,13.08,0,0,0,2.66-1.43,7.35,7.35,0,0,1,1.5-.79,2.67,2.67,0,0,1,1.29-.22,2.72,2.72,0,0,1,1.29.65,14.2,14.2,0,0,1,1.4,1.54l4.55,6.84a3.14,3.14,0,0,1,.54,1.26,2.93,2.93,0,0,1,.07,1.14,3,3,0,0,1-.82,1.69A8.57,8.57,0,0,1,403.71,890.36ZM384.86,844.7a9.27,9.27,0,0,0-4,.25,13.69,13.69,0,0,0-3.73,1.64,16.87,16.87,0,0,0-3.33,2.62,15.11,15.11,0,0,0-2.58,3.15l26,3.45a25.77,25.77,0,0,0-1.83-4,14.26,14.26,0,0,0-2.47-3.34,10.84,10.84,0,0,0-3.41-2.47A14,14,0,0,0,384.86,844.7Z"/><path d="M473.21,889.82c-.86,1-1.87,2-2.91,3.12a31.19,31.19,0,0,1-3.55,3.19,20.37,20.37,0,0,1-4.19,2.47,13.17,13.17,0,0,1-4.95,1.15,31.11,31.11,0,0,1-23.44-8.68,34.42,34.42,0,0,1-7.09-10.39A35.59,35.59,0,0,1,424,867.53a36.64,36.64,0,0,1,1.76-13.37,32.73,32.73,0,0,1,6.09-11,30.1,30.1,0,0,1,9.79-7.63,31.47,31.47,0,0,1,12.72-3.19,15.27,15.27,0,0,1,5.23.57,19.09,19.09,0,0,1,4.34,1.9,19.36,19.36,0,0,1,3.65,2.72q1.72,1.52,3.23,3l-1.11-23.47a3.84,3.84,0,0,1,.86-2.8,4,4,0,0,1,2.94-1.29l11.57-.54a4.27,4.27,0,0,1,1.4.18,8.93,8.93,0,0,1,1.4.76,4.33,4.33,0,0,1,1.08,1.21,3.82,3.82,0,0,1,.46,1.55l3.69,76.73c.11,2.62-1.22,4-4,4.16l-10,.5a3.73,3.73,0,0,1-1.57-.21,2.16,2.16,0,0,1-1-.72,4,4,0,0,1-.75-1.18l-.86-1.65Zm-30.68-23.15a18.65,18.65,0,0,0,1.32,6.27,15.32,15.32,0,0,0,3.26,5,14.83,14.83,0,0,0,4.84,3.19,14.13,14.13,0,0,0,6.17.93,16,16,0,0,0,6.13-1.47,15.47,15.47,0,0,0,8.13-8.56,16.54,16.54,0,0,0,1.15-6.1v-.71A16,16,0,0,0,472,859a16.2,16.2,0,0,0-3.66-5.09,16,16,0,0,0-5.3-3.3,14.79,14.79,0,0,0-6.45-1,13.93,13.93,0,0,0-6,1.57A13.75,13.75,0,0,0,446,855a17.54,17.54,0,0,0-2.8,5.38A19.41,19.41,0,0,0,442.53,866.67Z"/><path d="M524.6,816.49a2.16,2.16,0,0,1,.18-1.76,2.57,2.57,0,0,1,1.47-1.11l52.83-16.34a2.74,2.74,0,0,1,1.72.07,2.21,2.21,0,0,1,1.29,1.36l3.8,12.19a2.92,2.92,0,0,1-.11,1.9,2.09,2.09,0,0,1-1.47,1.32l-17,5.24L584,873.12a2.65,2.65,0,0,1-.15,1.79,2.45,2.45,0,0,1-1.43,1.22L568,880.57a2.21,2.21,0,0,1-1.76-.18A2.34,2.34,0,0,1,565,879l-16.66-53.73-16.85,5.24a2.52,2.52,0,0,1-1.86-.15,2.49,2.49,0,0,1-1.22-1.65Z"/><path d="M597,837.63a33,33,0,0,1-3.48-17.45,33.92,33.92,0,0,1,1.72-8.39,33.6,33.6,0,0,1,9.61-14.26,31.33,31.33,0,0,1,7.63-5A33.7,33.7,0,0,1,625.39,789a33.34,33.34,0,0,1,23.9,8.14,33.23,33.23,0,0,1,8.24,10.75,34,34,0,0,1,2.91,8.64,36.75,36.75,0,0,1,.54,8.78,34.12,34.12,0,0,1-1.76,8.42,33.17,33.17,0,0,1-3.76,7.71,33.75,33.75,0,0,1-5.77,6.56,35.29,35.29,0,0,1-7.53,5,32.64,32.64,0,0,1-8.67,2.93,32.14,32.14,0,0,1-8.71.54,33.92,33.92,0,0,1-8.46-1.72,31.34,31.34,0,0,1-7.67-3.8,35.57,35.57,0,0,1-6.63-5.77A32.55,32.55,0,0,1,597,837.63Zm16.81-8.27a17.6,17.6,0,0,0,3.73,5.23,15,15,0,0,0,4.94,3.3,14.27,14.27,0,0,0,5.67,1,14.66,14.66,0,0,0,6.12-1.61,14.45,14.45,0,0,0,4.88-3.8,13.49,13.49,0,0,0,2.58-5.09,14.32,14.32,0,0,0,.32-5.84,18.72,18.72,0,0,0-1.86-6.1,20.82,20.82,0,0,0-3.66-5.23,16.21,16.21,0,0,0-4.91-3.41A13.2,13.2,0,0,0,626,806.6a14.05,14.05,0,0,0-6,1.47,15.39,15.39,0,0,0-5,3.9,14.57,14.57,0,0,0-2.65,5.31,16.69,16.69,0,0,0-.36,6A19,19,0,0,0,613.81,829.36Z"/><path d="M735.34,790.9a3.06,3.06,0,0,1-.68,1.4,11.13,11.13,0,0,1-1,1l-6.27,4.63a3.43,3.43,0,0,1-1.47.68,3.3,3.3,0,0,1-1.43-.07,4.58,4.58,0,0,1-1.36-.58,7.53,7.53,0,0,1-1.33-.89l-5.16-4.3A26.39,26.39,0,0,1,717,797a20.93,20.93,0,0,1-3.33,10.85,19.42,19.42,0,0,1-5.06,5.27,24.82,24.82,0,0,1-9.93,4.48,24.23,24.23,0,0,1-10.14-.1,27.4,27.4,0,0,1-9.64-4.27,33.64,33.64,0,0,1-8.1-7.81l-20-27.1a4.37,4.37,0,0,1-1-2.9,3.27,3.27,0,0,1,1.54-2.4l9.57-7.06a4.52,4.52,0,0,1,2.87-1.22c.75.11,1.5.72,2.4,1.9L686,793.48a8.74,8.74,0,0,0,3.29,2.79,12.91,12.91,0,0,0,4.23,1.29,14.05,14.05,0,0,0,4.41-.32,12.05,12.05,0,0,0,3.94-1.79,9.52,9.52,0,0,0,2.51-3,13.63,13.63,0,0,0,1.58-4,13.06,13.06,0,0,0,.14-4.45,8.94,8.94,0,0,0-1.57-4l-19.9-26.92a4.82,4.82,0,0,1-.71-1.58,2.44,2.44,0,0,1,0-1.68,9.64,9.64,0,0,1,.65-1.22,6.42,6.42,0,0,1,1-.9l9.35-6.91a4,4,0,0,1,3.19-1,3.94,3.94,0,0,1,2.47,1.75l34.12,46.24a3.41,3.41,0,0,1,.72,1.72,3.17,3.17,0,0,1-.18,1.75Z"/><path d="M765.13,734.45a4.23,4.23,0,0,1,.5-1.43,4.7,4.7,0,0,1,.61-.83,3.25,3.25,0,0,1,1.36-.86,3.67,3.67,0,0,1,2.15,0l10.22,1.9c.28.07.64.22,1,.29a2,2,0,0,1,.72.43,2.47,2.47,0,0,1,.86,1.86,9.4,9.4,0,0,1-.15,2.08,41.8,41.8,0,0,1-3,9.93,33.28,33.28,0,0,1-13.19,14.41,33.12,33.12,0,0,1-8,3.44,35.48,35.48,0,0,1-8.46,1.21,32.22,32.22,0,0,1-8.53-1,33.65,33.65,0,0,1-8.13-3.26,31.08,31.08,0,0,1-7.31-5.45,33.65,33.65,0,0,1-9.14-15.3,31.51,31.51,0,0,1-1.22-8.46,33.75,33.75,0,0,1,1-8.53,32.37,32.37,0,0,1,3.15-8.1,35.89,35.89,0,0,1,13.62-13.62,32.67,32.67,0,0,1,9.39-3.3h-.21a4.84,4.84,0,0,1,2.33-.18,3.44,3.44,0,0,1,2.08,1.08,3.82,3.82,0,0,1,.93,1.72l2.37,8.74c.57,1.87.32,3.27-.65,4.23a1.87,1.87,0,0,1-.93.65,7.75,7.75,0,0,1-1.61.54,23.34,23.34,0,0,0-5.09,1.79,15.72,15.72,0,0,0-4.56,3.33,13.84,13.84,0,0,0-3.22,5.16,14.68,14.68,0,0,0-.68,5.84,18.38,18.38,0,0,0,1.65,5.81,18.73,18.73,0,0,0,3.8,5.16,18,18,0,0,0,5.23,3.66,16.26,16.26,0,0,0,5.8,1.43,14.34,14.34,0,0,0,5.67-1,13,13,0,0,0,5-3.37,15.33,15.33,0,0,0,3.11-4.7A26.21,26.21,0,0,0,765.13,734.45Z"/><path d="M762.15,677.64a21.27,21.27,0,0,1-1-3.62,17,17,0,0,1-.22-4.08,19.94,19.94,0,0,1,1-4.52,18.75,18.75,0,0,1,2.55-4.84,24.16,24.16,0,0,1,7.85-7.27,23.59,23.59,0,0,1,9.53-2.87,28.29,28.29,0,0,1,10.25,1.22,36.71,36.71,0,0,1,10,5L829.79,676a4.93,4.93,0,0,1,2,2.4,3.66,3.66,0,0,1-.72,2.79l-6.85,9.72a4.72,4.72,0,0,1-2.33,2c-.75.18-1.68-.18-2.86-1l-27.85-19.47a10.53,10.53,0,0,0-3.84-1.68,11,11,0,0,0-4,0,11.58,11.58,0,0,0-3.72,1.51,10.41,10.41,0,0,0-3,2.9,9.4,9.4,0,0,0-1.5,3.37,10.54,10.54,0,0,0-.11,3.84,11.83,11.83,0,0,0,1.33,3.83,11,11,0,0,0,2.79,3.3l27.81,19.42a4.29,4.29,0,0,1,1.22,1.29,2.74,2.74,0,0,1,.54,1.62,5.08,5.08,0,0,1-.25,1.32,4.9,4.9,0,0,1-.68,1.19L801,723.84a4,4,0,0,1-2.69,2,4.13,4.13,0,0,1-2.9-.82l-34.3-24-.29-.22L748.36,692l-.22-.14L732.51,681a3.94,3.94,0,0,1-1.75-2.47,4.39,4.39,0,0,1,.93-3.22l6.67-9.47a6,6,0,0,1,2.18-1.68,2.81,2.81,0,0,1,1.65-.07,3.73,3.73,0,0,1,1.54.68Z"/><path d="M790.4,601.8a2.59,2.59,0,0,1-1.26-1.11A2,2,0,0,1,789,599l5.24-14.34a2.45,2.45,0,0,1,1.14-1.29,1.82,1.82,0,0,1,1.8-.21l22.93,8.31,8.71-24-22.93-8.38a2.12,2.12,0,0,1-1.26-1.12,2.18,2.18,0,0,1-.07-1.79l5.16-14.12a2.89,2.89,0,0,1,1.08-1.5,1.76,1.76,0,0,1,1.79-.15L880.14,565a2.18,2.18,0,0,1,1.4,1.18,2.82,2.82,0,0,1-.07,1.87l-5.16,14.26a2.62,2.62,0,0,1-1.11,1.33,2.11,2.11,0,0,1-1.8.07l-27.41-10-8.75,24,27.38,10a1.93,1.93,0,0,1,1.36,1.21,2.76,2.76,0,0,1-.07,2l-5.16,14.19a1.89,1.89,0,0,1-2.65,1.37Z"/><path d="M888.92,489.3a34.63,34.63,0,0,1,4.73,11.11,30,30,0,0,1,.36,12.18A35.07,35.07,0,0,1,880.46,535a33.43,33.43,0,0,1-11.79,5.63,31.08,31.08,0,0,1-13.65.53,32.5,32.5,0,0,1-8.46-2.51,34.84,34.84,0,0,1-7.35-4.4,36,36,0,0,1-5.91-6,32.14,32.14,0,0,1-4.2-7.27,34,34,0,0,1-2.11-8.28,31.47,31.47,0,0,1,.29-9,28.53,28.53,0,0,1,2.43-8,31.52,31.52,0,0,1,4.38-6.95,33.59,33.59,0,0,1,5.91-5.56,34.09,34.09,0,0,1,7.06-3.91,31.54,31.54,0,0,1,7.71-2,29,29,0,0,1,8.06.18c1.76.32,3.23.57,4.3.79a5.22,5.22,0,0,1,2.55,1.25,4,4,0,0,1,1,2.62,20.65,20.65,0,0,1-.43,4.87l-6,36.49a12,12,0,0,0,5.74-1.15,13.32,13.32,0,0,0,4.08-3,13.09,13.09,0,0,0,2.55-4,19.08,19.08,0,0,0,1.29-4.22,21.32,21.32,0,0,0,.21-3.8,32.15,32.15,0,0,0-.36-3.87,22.89,22.89,0,0,0-.93-3.59,10.71,10.71,0,0,0-1.36-2.65,9.74,9.74,0,0,1-.75-1.61,1.9,1.9,0,0,1-.11-1.26,2.72,2.72,0,0,1,.65-1.29,11.5,11.5,0,0,1,1.61-1.32l7-4.38a4.37,4.37,0,0,1,1.29-.5,4.07,4.07,0,0,1,1.11,0,2.67,2.67,0,0,1,1.65.86A5.4,5.4,0,0,1,888.92,489.3Zm-46.27,17.31a9.68,9.68,0,0,0,.15,3.94,13.92,13.92,0,0,0,1.54,3.84,17,17,0,0,0,2.51,3.44,21.16,21.16,0,0,0,3,2.69l4.27-25.92a34.48,34.48,0,0,0-4,1.65,19.42,19.42,0,0,0-3.44,2.37,13.1,13.1,0,0,0-2.54,3.33A15.66,15.66,0,0,0,842.65,506.61Z"/><path d="M894.37,397.33a4.43,4.43,0,0,1,1.68.25,2.57,2.57,0,0,1,1.26,1,2,2,0,0,1,.72,1.29,4.1,4.1,0,0,1,.18,1.33l.21,10.1a3.88,3.88,0,0,1-.25,1.76,2.56,2.56,0,0,1-.79,1.08,3.14,3.14,0,0,1-1.25.75c-.47.18-1,.43-1.62.61l-3.8,1.57c.94.94,2,1.9,3,3a29.24,29.24,0,0,1,3,3.54A19.93,19.93,0,0,1,899,427.9a14.23,14.23,0,0,1,1,5,35.18,35.18,0,0,1-1,9,36.6,36.6,0,0,1-3.22,8.1,34,34,0,0,1-5.13,6.84,36.14,36.14,0,0,1-6.7,5.34,34.88,34.88,0,0,1-8.06,3.48,32.81,32.81,0,0,1-9.07,1.33,32.34,32.34,0,0,1-13.33-2.37,33.88,33.88,0,0,1-10.79-6.92,33.49,33.49,0,0,1-10.14-23.54,16,16,0,0,1,.86-5.88,19.8,19.8,0,0,1,2.36-4.95,26.14,26.14,0,0,1,3.44-4,41,41,0,0,1,3.91-3.19l-6.27-1.9c-.83-.32-1.55-.61-2.12-.82a3.86,3.86,0,0,1-1.18-.69,2.15,2.15,0,0,1-.54-1,12.06,12.06,0,0,1-.14-1.58l-.15-7.67a13.22,13.22,0,0,1,.15-1.36,2.6,2.6,0,0,1,.71-1.29,2.86,2.86,0,0,1,1.26-1,3.86,3.86,0,0,1,1.61-.4Zm-27.88,51.11a18.64,18.64,0,0,0,6.34-1.18,14.61,14.61,0,0,0,5-3.12,13.06,13.06,0,0,0,3.3-4.73,13.74,13.74,0,0,0,1.18-6.13,17.38,17.38,0,0,0-1.32-6.34,16,16,0,0,0-3.59-5.09,15.39,15.39,0,0,0-5.12-3.34,16.38,16.38,0,0,0-6.38-1.07,15.6,15.6,0,0,0-6.27,1.32,15.89,15.89,0,0,0-5.16,3.52,16.38,16.38,0,0,0-3.48,5.19,15.05,15.05,0,0,0-1.18,6.42,13.67,13.67,0,0,0,1.39,6.06,14.61,14.61,0,0,0,3.66,4.65,16,16,0,0,0,5.3,2.87A17.43,17.43,0,0,0,866.49,448.44Z"/><path d="M815.34,392.06a4.44,4.44,0,0,1-2.87-.43,3.18,3.18,0,0,1-1.54-2.61l-1.86-12.48a1.69,1.69,0,0,1,.14-1.07,4.3,4.3,0,0,1,.61-1.18,3.75,3.75,0,0,1,1.11-1,3.53,3.53,0,0,1,1.51-.58l75.91-11.47a3.66,3.66,0,0,1,3.08.65,4.34,4.34,0,0,1,1.44,2.65l1.75,11.79a3.55,3.55,0,0,1-.57,2.94,4.46,4.46,0,0,1-2.83,1.26Z"/><path d="M804.41,365.43a3.22,3.22,0,0,1-4.66-2.79L797.06,351a4.69,4.69,0,0,1,.22-3,3.94,3.94,0,0,1,2.76-1.76l9.75-2.22a4.56,4.56,0,0,1,1.39,0,5.7,5.7,0,0,1,1.55.47,5.54,5.54,0,0,1,1.32,1,3.9,3.9,0,0,1,.83,1.54l2.61,11.65c.58,2.43-.54,4-3.3,4.66Zm25.34-5.77a4.59,4.59,0,0,1-2.94-.28,3.42,3.42,0,0,1-1.79-2.51l-2.62-11.51a2.83,2.83,0,0,1,0-1.36,4.43,4.43,0,0,1,.47-1.47,4.38,4.38,0,0,1,1-1.29,3.1,3.1,0,0,1,1.54-.82l55.81-12.8a3.71,3.71,0,0,1,3.11.39,4.23,4.23,0,0,1,1.69,2.76l2.62,11.51c.53,2.47-.47,4-3,4.59Z"/><path d="M820.54,330.38a2.82,2.82,0,0,1-1.18-1c-.26-.47-.47-.9-.65-1.29l-2.65-7.31a3.57,3.57,0,0,1-.25-1.61,4.83,4.83,0,0,1,.43-1.37,6.83,6.83,0,0,1,1-1.11c.39-.39.78-.71,1.18-1l5.66-3.72a29.76,29.76,0,0,1-4.16-.86A20.22,20.22,0,0,1,815,308.8a19.86,19.86,0,0,1-4.66-4,20.26,20.26,0,0,1-3.58-6.38,25.62,25.62,0,0,1-1.58-10.75,24.89,24.89,0,0,1,3-9.75,27.56,27.56,0,0,1,6.74-8,31.5,31.5,0,0,1,9.78-5.55l31.58-11.65a4.5,4.5,0,0,1,3.08-.22,3.37,3.37,0,0,1,1.86,2.15l4.09,11.19a4.6,4.6,0,0,1,.36,3.08c-.29.71-1.11,1.25-2.44,1.79l-31.4,11.54a9.36,9.36,0,0,0-3.58,2.37,12.28,12.28,0,0,0-2.4,3.69,12.7,12.7,0,0,0-.93,4.37,9.32,9.32,0,0,0,.64,4.23,9.2,9.2,0,0,0,2.08,3.3,13.12,13.12,0,0,0,3.33,2.54,13.67,13.67,0,0,0,4.2,1.33,9.88,9.88,0,0,0,4.44-.29L871,292.25a4.71,4.71,0,0,1,1.76-.33,3.28,3.28,0,0,1,1.58.5,6.71,6.71,0,0,1,1,1,4.92,4.92,0,0,1,.61,1.26l4,10.89a3.64,3.64,0,0,1-2.26,5.27l-53.94,19.82a4.16,4.16,0,0,1-1.87.22,3.74,3.74,0,0,1-1.61-.68Z"/><path d="M826.13,194.62a12.07,12.07,0,0,0-3.69,1.54c-1.29.78-2.58,1.57-3.91,2.33,1.43.35,2.9.61,4.45.93a23,23,0,0,1,4.58,1.29,14.12,14.12,0,0,1,4.3,2.36,14.44,14.44,0,0,1,3.66,4.23A33.86,33.86,0,0,1,840,219.56a29.69,29.69,0,0,1-5.77,23.12,34.55,34.55,0,0,1-10,8.67,35.35,35.35,0,0,1-12.62,4.59,32.35,32.35,0,0,1-12.61-.36,31.54,31.54,0,0,1-11.33-5.16,32,32,0,0,1-8.78-9.71,16.3,16.3,0,0,1-2.08-5.45,22.28,22.28,0,0,1-.18-5.27,24.18,24.18,0,0,1,1.08-5c.5-1.65,1-3.26,1.61-4.76l-6.23,1.43-1.69.32a3.69,3.69,0,0,1-1.4,0,4.43,4.43,0,0,1-1.18-.54,3.9,3.9,0,0,1-1-1.29l-4-6.59a6.36,6.36,0,0,1-.53-1.26,2.52,2.52,0,0,1,0-1.47,5.23,5.23,0,0,1,.5-1.58,4.22,4.22,0,0,1,1.29-1.14l45-26.56a36.47,36.47,0,0,1,13.62-5,31.66,31.66,0,0,1,12.8.83,31,31,0,0,1,11.15,5.91,38.79,38.79,0,0,1,8.7,10.36,43.34,43.34,0,0,1,2.66,5.37,51.37,51.37,0,0,1,1.93,6.17,34.42,34.42,0,0,1,1,6.56,26.13,26.13,0,0,1-.36,6.31,6.55,6.55,0,0,1-.39,1.46,3.67,3.67,0,0,1-.9,1.26,3.61,3.61,0,0,1-1.4.82,4.69,4.69,0,0,1-2.07.22l-8.28-.75A4.27,4.27,0,0,1,846,219.7a4.88,4.88,0,0,1-.47-3.19,12,12,0,0,0,.21-3.58,19.15,19.15,0,0,0-.75-3.55,18.27,18.27,0,0,0-1.29-3.3c-.5-1.07-1-1.93-1.47-2.76a18.16,18.16,0,0,0-3-3.83,20.77,20.77,0,0,0-4-3.12,15.12,15.12,0,0,0-4.48-1.83A9.79,9.79,0,0,0,826.13,194.62Zm-11.29,40.82a20.25,20.25,0,0,0,4.95-4.16,15.37,15.37,0,0,0,2.86-5.23,13.46,13.46,0,0,0,.58-5.74,15.82,15.82,0,0,0-2.08-5.87,15.48,15.48,0,0,0-4.12-4.7,15.24,15.24,0,0,0-11.26-3.3,15.22,15.22,0,0,0-5.95,1.79l-1.43.86a15.75,15.75,0,0,0-4.41,4.27,16.72,16.72,0,0,0-2.83,11.58,16.4,16.4,0,0,0,2.08,5.95,14,14,0,0,0,9.64,6.84,16,16,0,0,0,6,0A22.5,22.5,0,0,0,814.84,235.44Z"/><path class="cls-1" d="M73.15,681.83A437.26,437.26,0,0,1,0,439.05C0,196.94,196.94,0,439.05,0,556.32,0,666.6,45.66,749.5,128.63L730,148.06C652.3,70.36,549,27.53,439.05,27.53c-226.91,0-411.52,184.61-411.52,411.52A409.44,409.44,0,0,0,96.09,666.57Z"/></g></g></svg>