<svg xmlns="http://www.w3.org/2000/svg" width="286.4" height="114.6" overflow="scroll"><style>.st1{fill:#f13a12}</style><path d="M47.2 91.1c0-1.1-.2-2.2-.7-3.1-.4-.9-1.3-1.8-2.5-2.6s-2.9-1.6-5-2.3c-2.1-.7-4.8-1.4-8.2-2.1-4.1-.9-7.8-2-11.3-3.3-3.5-1.3-6.5-3-9-4.9-2.5-2-4.5-4.2-5.9-6.9-1.4-2.6-2.1-5.6-2.1-9.1 0-3.3.7-6.5 2.2-9.5 1.4-3 3.5-5.6 6.3-7.9 2.7-2.3 6.1-4.1 10-5.4 4-1.3 8.4-2 13.4-2 5.2 0 9.8.6 13.9 1.9 4.1 1.3 7.6 3.1 10.5 5.3 2.9 2.3 5.1 5 6.6 8.1 1.5 3.1 2.3 6.6 2.3 10.3H46.4c0-3-1-5.6-2.9-7.6-2-2-5-3-9.2-3-3.6 0-6.4.8-8.3 2.4-2 1.6-2.9 3.7-2.9 6.2 0 1.2.3 2.2.8 3.1.5.9 1.4 1.7 2.5 2.5 1.2.8 2.7 1.5 4.6 2.1 1.9.6 4.2 1.2 7 1.8 4.3.8 8.3 1.9 12 3.1 3.7 1.2 6.9 2.8 9.5 4.8 2.7 1.9 4.8 4.3 6.3 7.1s2.3 6.1 2.3 10.1c0 3.5-.8 6.8-2.4 9.8-1.6 3-3.8 5.5-6.7 7.7-2.9 2.2-6.4 3.9-10.6 5.1-4.1 1.2-8.7 1.8-13.9 1.8-5.6 0-10.5-.8-14.8-2.4-4.3-1.6-7.9-3.6-10.8-6.2-2.9-2.6-5.1-5.4-6.6-8.6C.7 94.3 0 91.1 0 87.8h20.2c.1 2.1.6 3.8 1.4 5.3.8 1.5 1.9 2.7 3.2 3.6 1.3.9 2.9 1.6 4.6 2.1 1.7.4 3.6.7 5.5.7 4.1 0 7.2-.8 9.2-2.3 2.1-1.5 3.1-3.6 3.1-6.1zm206.4 23.5c-6.2 0-11.7-1-16.6-3-4.9-2-9-4.8-12.5-8.3-3.4-3.5-6-7.6-7.8-12.3-1.8-4.7-2.7-9.7-2.7-15.1V73c0-6 .9-11.6 2.6-16.6 1.7-5 4.2-9.4 7.4-13 3.2-3.6 7.1-6.5 11.7-8.5s9.7-3.1 15.4-3.1c5.7 0 10.8.9 15.2 2.8 4.4 1.9 8 4.5 11 8 3 3.4 5.2 7.5 6.7 12.3 1.5 4.8 2.2 10.2 2.2 16.1v9.1h-50.8c.3 2.6 1 5 2.1 7.1 1.1 2.1 2.4 3.9 4.1 5.4 1.6 1.5 3.6 2.7 5.8 3.5 2.2.8 4.7 1.3 7.4 1.3 3.9 0 7.5-.7 10.8-2.2 3.3-1.4 6.1-3.7 8.5-6.7l10.5 11.7c-1.3 1.8-2.9 3.6-4.8 5.3-1.9 1.7-4.2 3.3-6.8 4.6-2.6 1.4-5.5 2.4-8.8 3.2-3.2.9-6.8 1.3-10.6 1.3zm-2.5-65.4c-2.3 0-4.3.4-6.1 1.2-1.7.8-3.2 1.9-4.5 3.4-1.3 1.4-2.3 3.2-3.1 5.2-.8 2-1.4 4.2-1.7 6.7h29.6V64c0-2.1-.4-4.1-.9-5.9-.6-1.8-1.4-3.4-2.6-4.7-1.2-1.3-2.6-2.4-4.4-3.1-1.7-.7-3.8-1.1-6.3-1.1zM89.6 52.1L86 43.8c-.7-1.6-.7-3.5-.1-5.1.7-1.6 2-2.9 3.6-3.6.7-.3 1.5-.7 2.5-1.1.8-.4 1.6-.8 2.6-1.2V0H73.2v113.2h21.4V63.3l-5-11.2zm98.5 38.4c-.7 1.4-1.6 2.7-2.8 3.7-1.2 1-2.6 1.8-4.2 2.4-1.6.6-3.4.8-5.4.8-3.2 0-5.8-.6-7.7-1.9-2-1.3-3.5-2.9-4.6-5-1.1-2.1-1.9-4.6-2.2-7.4-.4-2.8-.6-5.7-.6-8.8v-2.1c0-3 .2-5.9.6-8.7.4-2.8 1.1-5.3 2.2-7.4 1.1-2.1 2.6-3.8 4.6-5.1 2-1.3 4.5-1.9 7.6-1.9 2.2 0 4.1.4 5.7 1.1 1.7.7 3.1 1.7 4.2 3s2 2.7 2.6 4.4c.6 1.7.9 3.5 1 5.4h20c0-4.8-.9-9.1-2.5-12.9-1.6-3.9-3.9-7.1-6.8-9.8-2.9-2.7-6.4-4.8-10.4-6.2-4.1-1.4-8.5-2.2-13.4-2.2-6.1 0-11.5 1-16.1 3.1-1.3.6-2.5 1.3-3.7 2 1.6 1.9 2.2 4.6 1.2 7.1l-3.3 7.9-13.7 33.1c.3 1.7.7 3.4 1.2 5 1.5 4.9 3.8 9.1 6.9 12.7 3 3.6 6.9 6.5 11.5 8.5 4.6 2.1 10 3.1 16.2 3.1 4.6 0 8.9-.7 12.9-2.1 4-1.4 7.5-3.4 10.4-6 2.9-2.6 5.3-5.6 7-9.2 1.7-3.6 2.6-7.5 2.7-11.7h-20c-.1 2-.4 3.7-1.1 5.1z" fill="#202020"/><path class="st1" d="M121.8 112.8L96.4 54.9c6.8-2.5 16.8-5.5 26.2-5.5h.1c8.9 0 18.3 3 24.7 5.5l-24 57.9c-.3.7-1.2.7-1.6 0z"/><path class="st1" d="M152.7 42.2l-3.2 7.8c-6.8-2.7-17-5.9-26.8-5.9h-.1c-10.4 0-21.1 3.2-28.4 5.9l-3.6-8.3c-.3-.8 0-1.7.8-2 4.7-1.9 13.7-7.6 31.2-7.6h.1c15 0 24.3 5.7 29.1 7.8.9.4 1.3 1.4.9 2.3z"/></svg>