<svg xmlns="http://www.w3.org/2000/svg" viewBox="0 0 900 96.89"><defs><style>.cls-1{fill:url(#Degradado_sin_nombre_53)}</style><linearGradient id="Degradado_sin_nombre_53" x1="50.52" y1="99.81" x2="50.52" y2="-8.34" gradientUnits="userSpaceOnUse"><stop offset="0" stop-color="#7b2567"/><stop offset="1" stop-color="#b02348"/></linearGradient></defs><g id="Capa_2" data-name="Capa 2"><g id="Capa_1-2" data-name="Capa 1"><path class="cls-1" d="M101 72.08c-.11-5.27-3.48-12.48-7.6-15.77A20.07 20.07 0 0 0 78.56 52a17 17 0 0 0-15 18.71 14.07 14.07 0 0 0 3.18 7.54 14.26 14.26 0 0 0 11.4 5.18.85.85 0 0 0 .81-.85v-6a.84.84 0 0 0-.84-.84 7.57 7.57 0 0 1-4.47-1.46 6.6 6.6 0 0 1-2.45-4.46 9.29 9.29 0 0 1 3.68-8.48 10.88 10.88 0 0 1 4.57-1.76A12.59 12.59 0 0 1 90.8 64.5a14.78 14.78 0 0 1 2.49 6.5 16.5 16.5 0 0 1-3.68 12c-3.06 3.75-9.6 6.34-14.43 6.13a21.8 21.8 0 0 1-20.65-19.28 27 27 0 0 1-.17-2.85 28.18 28.18 0 0 1 23.89-28.08.84.84 0 0 0 .73-.83v-6a.85.85 0 0 0-1-.85 36.55 36.55 0 0 0-23.45 13.12 36 36 0 0 0-4 6.24 36 36 0 0 0-4-6.24A36.53 36.53 0 0 0 23 31.2a.85.85 0 0 0-1 .85v6a.84.84 0 0 0 .72.83A28.19 28.19 0 0 1 46.68 67c0 .93-.07 1.87-.17 2.82a21.8 21.8 0 0 1-20.65 19.37c-4.83.21-11.37-2.38-14.43-6.13A16.5 16.5 0 0 1 7.75 71a14.78 14.78 0 0 1 2.46-6.5 12.58 12.58 0 0 1 11.36-4.92 10.93 10.93 0 0 1 4.57 1.76 9.31 9.31 0 0 1 3.68 8.48 6.64 6.64 0 0 1-2.45 4.46 7.59 7.59 0 0 1-4.47 1.46.83.83 0 0 0-.84.84v6a.84.84 0 0 0 .81.85 14.26 14.26 0 0 0 11.4-5.18 14.07 14.07 0 0 0 3.18-7.54A17 17 0 0 0 22.48 52 20.09 20.09 0 0 0 7.6 56.31C3.49 59.6.12 66.81 0 72.08v.51a24.35 24.35 0 0 0 9 18.82 23.85 23.85 0 0 0 12.68 5.3 29.5 29.5 0 0 0 28.89-14.8 29.49 29.49 0 0 0 28.83 14.8 23.88 23.88 0 0 0 12.69-5.3 24.35 24.35 0 0 0 9-18.82c-.09-.17-.09-.34-.09-.51z"/><path class="cls-1" d="M51 37.55a.87.87 0 0 1-1 0l-1.82-1.4a21.76 21.76 0 0 1 0-34.57L50 .18a.84.84 0 0 1 1 0l1.82 1.4a21.78 21.78 0 0 1 0 34.57zm.19-26.69a.87.87 0 0 0-1.42 0 14.1 14.1 0 0 0 0 16 .86.86 0 0 0 1.42 0 14.1 14.1 0 0 0 0-16z"/><path d="M144.23 49.78c.35.28.78.66 1.32 1.13a16.57 16.57 0 0 0 1.83 1.41 15.59 15.59 0 0 0 3.06 1.61 9 9 0 0 0 3.18.57 8.36 8.36 0 0 0 2.59-.35 4.4 4.4 0 0 0 1.65-.92 3.35 3.35 0 0 0 .86-1.33 5 5 0 0 0 .26-1.61 2.36 2.36 0 0 0-.71-1.67 7.38 7.38 0 0 0-1.74-1.32 15.48 15.48 0 0 0-2.15-1l-1.94-.68a43.65 43.65 0 0 1-6.36-2.73 19.56 19.56 0 0 1-4.54-3.27 12.28 12.28 0 0 1-2.73-4 12.43 12.43 0 0 1-.91-4.82 11.09 11.09 0 0 1 4.38-9 15.25 15.25 0 0 1 5.07-2.52 22.82 22.82 0 0 1 6.63-.9 22.34 22.34 0 0 1 5.29.62 20.48 20.48 0 0 1 5 2c.69.4 1.34.82 1.95 1.25s1.16.86 1.62 1.26a7.31 7.31 0 0 1 1.11 1.15 1.69 1.69 0 0 1 .41.94 1.46 1.46 0 0 1-.2.73 4.63 4.63 0 0 1-.59.75L163.92 32a1.51 1.51 0 0 1-1 .51 1.36 1.36 0 0 1-.78-.24c-.23-.16-.49-.36-.77-.6l-.27-.25q-.6-.51-1.35-1.05a11.33 11.33 0 0 0-3.37-1.72 6.61 6.61 0 0 0-1.91-.29 10.19 10.19 0 0 0-1.88.17 5.17 5.17 0 0 0-1.54.53A2.82 2.82 0 0 0 150 30a2.74 2.74 0 0 0 0 2.9 4 4 0 0 0 1.27 1.15 11.16 11.16 0 0 0 2.1 1c.84.32 1.82.65 2.93 1 2.13.7 4.11 1.45 5.92 2.22a20.07 20.07 0 0 1 4.67 2.76 11.39 11.39 0 0 1 3.08 3.8 11.83 11.83 0 0 1 1.1 5.36 13.21 13.21 0 0 1-1.36 6 13.73 13.73 0 0 1-3.71 4.7 17.33 17.33 0 0 1-5.59 3 22.07 22.07 0 0 1-6.9 1 19.55 19.55 0 0 1-6.84-1.25 25.86 25.86 0 0 1-6.27-3.34 16.41 16.41 0 0 1-2.05-1.73L137 57.2l-.09-.09a.14.14 0 0 0-.06-.07h-.06a.28.28 0 0 0-.06-.08h-.06a2.16 2.16 0 0 1-.7-1.22 1.76 1.76 0 0 1 .7-1.15l5.24-5a2 2 0 0 1 1-.45 1.18 1.18 0 0 1 .58.18 4.94 4.94 0 0 1 .74.46zm72.41 12.29a2.67 2.67 0 0 1-.18 1 2.37 2.37 0 0 1-1.39 1.17 4.24 4.24 0 0 1-.79.09h-6a2.75 2.75 0 0 1-1-.16 1.58 1.58 0 0 1-.63-.47 2.55 2.55 0 0 1-.41-.75c-.11-.29-.23-.61-.35-1l-.89-2.24c-.54.54-1.14 1.12-1.79 1.74a15 15 0 0 1-2.13 1.71 12.39 12.39 0 0 1-2.53 1.32 8 8 0 0 1-2.91.53 19.5 19.5 0 0 1-14-5.77 20 20 0 0 1-3.07-4 19.68 19.68 0 0 1-2-4.77 20.08 20.08 0 0 1-.7-5.35A19.78 19.78 0 0 1 181.66 31a19.51 19.51 0 0 1 6.27-4.22 19.72 19.72 0 0 1 7.72-1.52 10.09 10.09 0 0 1 3.46.56 11.71 11.71 0 0 1 2.89 1.46 14.26 14.26 0 0 1 2.33 2 21.65 21.65 0 0 1 1.86 2.34l1.15-3.62c.21-.5.37-.91.5-1.23a2.16 2.16 0 0 1 .43-.69 1.09 1.09 0 0 1 .56-.3 4.42 4.42 0 0 1 .94-.08h4.51a4.24 4.24 0 0 1 .79.09 1.45 1.45 0 0 1 .78.43 2 2 0 0 1 .61.75 2.5 2.5 0 0 1 .18 1zm-29.83-17a11.16 11.16 0 0 0 .62 3.74 9.16 9.16 0 0 0 1.77 3 8.48 8.48 0 0 0 2.77 2 8.6 8.6 0 0 0 3.59.74 9.6 9.6 0 0 0 3.77-.74 9.72 9.72 0 0 0 3-2 9.26 9.26 0 0 0 2-3 9.94 9.94 0 0 0 0-7.43 9.9 9.9 0 0 0-2-3.09 9.65 9.65 0 0 0-3-2.11 9.28 9.28 0 0 0-3.77-.77 8.31 8.31 0 0 0-3.59.77 8.47 8.47 0 0 0-2.77 2.11 9.81 9.81 0 0 0-1.77 3.09 11.08 11.08 0 0 0-.62 3.73zm61.72 7.4a2.14 2.14 0 0 1 .8-.38 3.15 3.15 0 0 1 .59-.07 2.09 2.09 0 0 1 .94.21 2.47 2.47 0 0 1 .88.91l3.39 5.11a5.64 5.64 0 0 1 .29.55 1.23 1.23 0 0 1 .13.48 1.51 1.51 0 0 1-.44 1.14 5.82 5.82 0 0 1-1 .77 22.48 22.48 0 0 1-5.39 2.81 18.47 18.47 0 0 1-6.25 1 19.39 19.39 0 0 1-5.25-.7 18.93 18.93 0 0 1-4.71-2 20.26 20.26 0 0 1-4-3.09 19.07 19.07 0 0 1-3.09-4 20.51 20.51 0 0 1-2-4.77 20.55 20.55 0 0 1 0-10.71 20.15 20.15 0 0 1 2-4.77 19.21 19.21 0 0 1 3.09-4 19.49 19.49 0 0 1 4-3.08 19.65 19.65 0 0 1 10-2.66 20.49 20.49 0 0 1 6.1.87 19.15 19.15 0 0 1 5.26 2.61l-.09-.09a3.69 3.69 0 0 1 1.06.92 2.17 2.17 0 0 1 .39 1.32 2.11 2.11 0 0 1-.36 1.12l-2.7 4.57a2.42 2.42 0 0 1-2.06 1.49 2.11 2.11 0 0 1-.66-.14 3.64 3.64 0 0 1-.88-.47 14.46 14.46 0 0 0-2.9-1.42 9.5 9.5 0 0 0-3.26-.56 8.06 8.06 0 0 0-3.51.77 8.25 8.25 0 0 0-2.74 2.11 10 10 0 0 0-1.78 3.09 11.27 11.27 0 0 0 0 7.43 9.35 9.35 0 0 0 1.78 3 8.28 8.28 0 0 0 6.25 2.75 8.72 8.72 0 0 0 3.24-.6 14.83 14.83 0 0 0 2.88-1.52zm12.78-24.38a2.23 2.23 0 0 1 .22-1 2.16 2.16 0 0 1 .56-.74 2.92 2.92 0 0 1 1.64-.52h4.57a1.68 1.68 0 0 1 .91.21 2 2 0 0 1 .56.55 4.16 4.16 0 0 1 .4.76 6.4 6.4 0 0 0 .4.84l.25.6.39 1c.14.38.28.73.41 1.06s.22.56.26.65q.9-1 1.74-2.1a17.51 17.51 0 0 1 1.77-2 8.53 8.53 0 0 1 2.09-1.55 5.78 5.78 0 0 1 2.72-.6 16 16 0 0 1 2.92.24 12.55 12.55 0 0 1 2.44.71 13.6 13.6 0 0 1 2.29 1.2c.76.48 1.58 1.05 2.47 1.69q2.08 1.13.79 3.33l-2.76 4.7a2.53 2.53 0 0 1-1.48 1.12A2.82 2.82 0 0 1 285 38a9.87 9.87 0 0 0-2.65-1.89 7.33 7.33 0 0 0-3.08-.62 5.72 5.72 0 0 0-2.07.34 5.43 5.43 0 0 0-1.62.93 8.3 8.3 0 0 0-1.36 1.46c-.43.56-.85 1.19-1.28 1.87V62a2.44 2.44 0 0 1-.55 1.74 2.48 2.48 0 0 1-1.87.59h-6.81a2.07 2.07 0 0 1-2.4-2.33zm64.14 31.62a20.38 20.38 0 0 1-6 3.83 18.25 18.25 0 0 1-7.06 1.38 20.65 20.65 0 0 1-14.32-5.71 20.06 20.06 0 0 1-4.42-6.32A19 19 0 0 1 292 45a20.43 20.43 0 0 1 2.5-9.84 20 20 0 0 1 2.91-4 18.59 18.59 0 0 1 3.84-3.16 19 19 0 0 1 4.6-2 18.74 18.74 0 0 1 5.24-.72 18.07 18.07 0 0 1 4.88.66 19.51 19.51 0 0 1 11.2 8.5 17.91 17.91 0 0 1 1.93 4.3 16.51 16.51 0 0 1 .68 4.71v2.57a2.83 2.83 0 0 1-.47 1.59 2.28 2.28 0 0 1-1.41.82 13.79 13.79 0 0 1-2.89.23h-21.8a7.59 7.59 0 0 0 1.22 3.24 7.91 7.91 0 0 0 2.14 2.07 8.57 8.57 0 0 0 2.57 1.1 10.53 10.53 0 0 0 2.58.34 11.75 11.75 0 0 0 2.24-.23 15.73 15.73 0 0 0 2.22-.6 13.28 13.28 0 0 0 2-.88 6.39 6.39 0 0 0 1.44-1.05 6.36 6.36 0 0 1 .83-.59 1.53 1.53 0 0 1 .75-.2 1.46 1.46 0 0 1 .8.28 6.27 6.27 0 0 1 .92.78l3.21 3.64a2.24 2.24 0 0 1 .43.71 2.37 2.37 0 0 1 .09.65 1.65 1.65 0 0 1-.34 1 3.8 3.8 0 0 1-.86.79zm-14.57-25.23a5.87 5.87 0 0 0-2.29.47 8.38 8.38 0 0 0-2.07 1.26 10.17 10.17 0 0 0-1.74 1.79 10.51 10.51 0 0 0-1.26 2H319a20.27 20.27 0 0 0-1.38-2.18 9.4 9.4 0 0 0-1.7-1.75 7.05 7.05 0 0 0-2.18-1.18 8.82 8.82 0 0 0-2.86-.41zm52.33 25.14c-.55.54-1.15 1.13-1.8 1.75a17.17 17.17 0 0 1-2.17 1.76 11.65 11.65 0 0 1-2.54 1.35 8.12 8.12 0 0 1-2.94.53 18.42 18.42 0 0 1-7.58-1.55 18.08 18.08 0 0 1-6-4.22 19.4 19.4 0 0 1-3.91-6.32 22.39 22.39 0 0 1 0-15.64 19.37 19.37 0 0 1 3.94-6.28 17.93 17.93 0 0 1 6-4.22 18.73 18.73 0 0 1 7.58-1.52 9.25 9.25 0 0 1 3.05.48 11.51 11.51 0 0 1 2.48 1.26 14.43 14.43 0 0 1 2.09 1.71c.63.64 1.24 1.26 1.8 1.87V16.71a2.41 2.41 0 0 1 .59-1.64 2.25 2.25 0 0 1 1.77-.67h6.82a2.37 2.37 0 0 1 .83.17 2.81 2.81 0 0 1 .8.47 2.46 2.46 0 0 1 .59.73 2 2 0 0 1 .23.94V62c0 1.55-.82 2.33-2.45 2.33h-5.94a2.36 2.36 0 0 1-.94-.15 1.5 1.5 0 0 1-.56-.44 2.92 2.92 0 0 1-.41-.73c-.12-.29-.27-.63-.45-1zM345.8 45.11a10.91 10.91 0 0 0 .62 3.74 8.82 8.82 0 0 0 1.77 3 8.48 8.48 0 0 0 2.77 2 8.6 8.6 0 0 0 3.59.74 9.67 9.67 0 0 0 3.65-.69 9.39 9.39 0 0 0 3-1.93 9.66 9.66 0 0 0 2.05-2.89 9.55 9.55 0 0 0 .86-3.57v-.43a9.45 9.45 0 0 0-.73-3.69 9.87 9.87 0 0 0-2-3.09 9.65 9.65 0 0 0-3-2.11 9.28 9.28 0 0 0-3.77-.77 8.31 8.31 0 0 0-3.59.77 8.47 8.47 0 0 0-2.77 2.11 9.44 9.44 0 0 0-1.77 3.09 10.83 10.83 0 0 0-.68 3.72zm63.96-24.46a1.2 1.2 0 0 1 .42-1 1.42 1.42 0 0 1 1-.37h32.58a1.47 1.47 0 0 1 1 .34 1.32 1.32 0 0 1 .49 1v7.52a1.71 1.71 0 0 1-.38 1 1.28 1.28 0 0 1-1.08.5h-10.46v33.23a1.44 1.44 0 0 1-.4 1 1.3 1.3 0 0 1-1 .43H423a1.41 1.41 0 0 1-1-.4 1.34 1.34 0 0 1-.45-1V29.71h-10.36a1.39 1.39 0 0 1-1-.39 1.5 1.5 0 0 1-.42-1.15zm36.13 24.44a19.86 19.86 0 0 1 .72-5.36 20.18 20.18 0 0 1 2-4.77 19.91 19.91 0 0 1 3.09-4 19.16 19.16 0 0 1 4-3.08 20.37 20.37 0 0 1 10.11-2.66 19.76 19.76 0 0 1 14 5.74 20 20 0 0 1 4.24 6.3 20.32 20.32 0 0 1 .84 13.17 20.35 20.35 0 0 1-2 4.77 19.76 19.76 0 0 1-3.09 4 19.79 19.79 0 0 1-14 5.77 20 20 0 0 1-5.34-.7 19.35 19.35 0 0 1-4.77-2 19.55 19.55 0 0 1-4-3.09 19.76 19.76 0 0 1-3.09-4 20.35 20.35 0 0 1-2-4.77 19.69 19.69 0 0 1-.71-5.32zm11.06 0a11.22 11.22 0 0 0 .62 3.75 8.92 8.92 0 0 0 1.76 3 8.06 8.06 0 0 0 2.75 2 8.6 8.6 0 0 0 3.65.74 8.25 8.25 0 0 0 3.56-.74 7.83 7.83 0 0 0 2.69-2 8.79 8.79 0 0 0 1.7-3 11.74 11.74 0 0 0 .59-3.75 11.59 11.59 0 0 0-.59-3.69 9.47 9.47 0 0 0-1.7-3.09 7.82 7.82 0 0 0-2.69-2.1 8 8 0 0 0-3.56-.77 8.31 8.31 0 0 0-3.65.77 8 8 0 0 0-2.75 2.1 9.6 9.6 0 0 0-1.76 3.09 11.08 11.08 0 0 0-.57 3.69zm70.44 18.69a1.93 1.93 0 0 1-.84.43 4.12 4.12 0 0 1-.83.09h-4.57a2.07 2.07 0 0 1-.94-.2 2 2 0 0 1-.67-.53 3.11 3.11 0 0 1-.45-.75 9.18 9.18 0 0 1-.31-.88l-.93-3.87a15.87 15.87 0 0 1-1.32 2.14 11.28 11.28 0 0 1-2.2 2.23 12.36 12.36 0 0 1-3.18 1.75 11.81 11.81 0 0 1-4.24.71 14.25 14.25 0 0 1-11.06-5 16.54 16.54 0 0 1-3.08-5.37 19.42 19.42 0 0 1-1.09-6.53V28.17a2.68 2.68 0 0 1 .5-1.75 2 2 0 0 1 1.59-.59h7a2.71 2.71 0 0 1 1.78.44A2.29 2.29 0 0 1 503 28v19.72a5.32 5.32 0 0 0 .59 2.47 7.15 7.15 0 0 0 1.56 2.07 7.51 7.51 0 0 0 2.19 1.4 6.3 6.3 0 0 0 2.5.52 5.49 5.49 0 0 0 2.26-.52 8.61 8.61 0 0 0 2.15-1.37 7.68 7.68 0 0 0 1.62-2 5.13 5.13 0 0 0 .63-2.47V28.08a2.86 2.86 0 0 1 .2-1 1.61 1.61 0 0 1 .59-.79 2.77 2.77 0 0 1 .74-.33 3.2 3.2 0 0 1 .81-.1h6.84a2.13 2.13 0 0 1 2.45 2.34v33.86a2.27 2.27 0 0 1-.25 1.06 1.92 1.92 0 0 1-.72.75zm32.67-11.33a2.11 2.11 0 0 1 .8-.37 2.6 2.6 0 0 1 .59-.08 2.06 2.06 0 0 1 .94.21 2.47 2.47 0 0 1 .88.91l3.39 5.12a4.51 4.51 0 0 1 .29.54 1.32 1.32 0 0 1 .14.49 1.54 1.54 0 0 1-.44 1.13 6 6 0 0 1-1 .78 23 23 0 0 1-5.39 2.82 18.82 18.82 0 0 1-6.26 1 19.45 19.45 0 0 1-5.25-.7 18.93 18.93 0 0 1-4.71-2 20.56 20.56 0 0 1-4-3.09 19.07 19.07 0 0 1-3.09-4 20.76 20.76 0 0 1-2-4.77 20.55 20.55 0 0 1 0-10.71A20.58 20.58 0 0 1 537 35a19.21 19.21 0 0 1 3-4 20.13 20.13 0 0 1 4-3.08 19.66 19.66 0 0 1 4.71-2 19.45 19.45 0 0 1 5.25-.7 20.23 20.23 0 0 1 6.11.88 18.92 18.92 0 0 1 5.25 2.6l-.09-.09a3.56 3.56 0 0 1 1.06.92 2.19 2.19 0 0 1 .39 1.32 2.11 2.11 0 0 1-.36 1.12l-2.7 4.57A2.42 2.42 0 0 1 561.6 38a2.11 2.11 0 0 1-.66-.14 3.47 3.47 0 0 1-.88-.47A14.46 14.46 0 0 0 557.2 36a9.5 9.5 0 0 0-3.26-.55 7.92 7.92 0 0 0-3.51.77 8.2 8.2 0 0 0-2.74 2.1 9.81 9.81 0 0 0-1.77 3.09 10.61 10.61 0 0 0-.64 3.69 10.74 10.74 0 0 0 .64 3.75 9.11 9.11 0 0 0 1.77 3 8.28 8.28 0 0 0 6.25 2.75 8.72 8.72 0 0 0 3.24-.6 14.83 14.83 0 0 0 2.88-1.55zm24.41-22.57a12.86 12.86 0 0 1 1.39-1.68 9.75 9.75 0 0 1 1.93-1.48 10.82 10.82 0 0 1 2.51-1 11.53 11.53 0 0 1 3.19-.41 13.5 13.5 0 0 1 10.77 4.95 16.12 16.12 0 0 1 2.88 5.37 21.49 21.49 0 0 1 1 6.55V62a2.64 2.64 0 0 1-.5 1.74 1.94 1.94 0 0 1-1.59.59h-7a2.74 2.74 0 0 1-1.79-.43 2.34 2.34 0 0 1-.48-1.72v-20a5.82 5.82 0 0 0-.51-2.43 6.46 6.46 0 0 0-1.34-2 6.3 6.3 0 0 0-4.4-1.75 5.54 5.54 0 0 0-2.14.44 6 6 0 0 0-1.88 1.24 7.17 7.17 0 0 0-1.39 1.92 6.55 6.55 0 0 0-.65 2.49v20a2.86 2.86 0 0 1-.2 1 1.61 1.61 0 0 1-.59.79 2.77 2.77 0 0 1-.74.33 3.2 3.2 0 0 1-.8.09h-6.85a2.13 2.13 0 0 1-2.45-2.3V16.71a2.36 2.36 0 0 1 .58-1.67 2.43 2.43 0 0 1 1.87-.64h6.85a3.2 3.2 0 0 1 1.54.49 1.61 1.61 0 0 1 .59.79 2.71 2.71 0 0 1 .2 1zm58.58-5.36a1.53 1.53 0 0 1 .38-.93 1.15 1.15 0 0 1 .92-.4h9a1.48 1.48 0 0 1 .94.38 1.17 1.17 0 0 1 .49.95V38.9h15.05V24.52a1.32 1.32 0 0 1 1.36-1.33H680a1.85 1.85 0 0 1 1.05.3 1.06 1.06 0 0 1 .46 1v42.33a1.21 1.21 0 0 1-.4 1 1.48 1.48 0 0 1-1 .34h-8.94a1.38 1.38 0 0 1-1-.34 1.23 1.23 0 0 1-.38-1v-17.2h-15.02v17.2a1.23 1.23 0 0 1-.41 1 1.66 1.66 0 0 1-1.11.35h-8.9c-.85 0-1.28-.4-1.3-1.18zm79.37 39.03a20.21 20.21 0 0 1-6 3.84 18.41 18.41 0 0 1-7 1.37A20.54 20.54 0 0 1 695 63.05a20.17 20.17 0 0 1-4.42-6.31 19 19 0 0 1-1.63-7.9 20.43 20.43 0 0 1 2.5-9.85 19.59 19.59 0 0 1 2.9-4 18.54 18.54 0 0 1 3.83-3.13 18.73 18.73 0 0 1 4.61-2 18.33 18.33 0 0 1 5.24-.73 17.62 17.62 0 0 1 4.87.67 18.76 18.76 0 0 1 4.44 1.88 19 19 0 0 1 3.8 2.9 19.83 19.83 0 0 1 3 3.71 18.65 18.65 0 0 1 1.92 4.3 16.61 16.61 0 0 1 .68 4.71v2.58a3 3 0 0 1-.46 1.59 2.33 2.33 0 0 1-1.41.81 13.24 13.24 0 0 1-2.9.23h-21.8a7.47 7.47 0 0 0 1.23 3.24 7.64 7.64 0 0 0 2.13 2.08 8.63 8.63 0 0 0 2.58 1.1 10.85 10.85 0 0 0 2.57.33 11.64 11.64 0 0 0 2.24-.22 17.83 17.83 0 0 0 2.23-.61 12.23 12.23 0 0 0 2-.88 6.53 6.53 0 0 0 1.43-1 6.36 6.36 0 0 1 .84-.59 1.49 1.49 0 0 1 .74-.2 1.45 1.45 0 0 1 .8.27 7.87 7.87 0 0 1 .93.79l3.11 3.55a2 2 0 0 1 .42.72 2.32 2.32 0 0 1 .09.65 1.68 1.68 0 0 1-.33 1 4.12 4.12 0 0 1-.76.81zm-14.57-25.22a5.82 5.82 0 0 0-2.28.47 8.71 8.71 0 0 0-2.08 1.25 11.33 11.33 0 0 0-1.74 1.79 11.66 11.66 0 0 0-1.26 2H716a17.26 17.26 0 0 0-1.38-2.18 9.41 9.41 0 0 0-1.69-1.76 7.51 7.51 0 0 0-2.18-1.18 8.9 8.9 0 0 0-2.9-.39zm64.81 27.59a2.7 2.7 0 0 1-.18 1 1.53 1.53 0 0 1-.61.74 1.45 1.45 0 0 1-.78.43 4.24 4.24 0 0 1-.79.09h-6a2.73 2.73 0 0 1-1-.17 1.58 1.58 0 0 1-.63-.47 2.5 2.5 0 0 1-.41-.74c-.11-.29-.23-.61-.35-1l-.91-2.25c-.54.55-1.14 1.13-1.79 1.74a15.84 15.84 0 0 1-2.1 1.71 12.88 12.88 0 0 1-2.53 1.31 7.83 7.83 0 0 1-2.91.53 19.55 19.55 0 0 1-10-2.68 18.89 18.89 0 0 1-4-3.09 19.75 19.75 0 0 1-3.07-4 19.35 19.35 0 0 1-2-4.77 20 20 0 0 1-.7-5.34 19.71 19.71 0 0 1 1.54-7.83 20 20 0 0 1 4.21-6.3 19.62 19.62 0 0 1 14-5.74 10.23 10.23 0 0 1 3.45.56 12 12 0 0 1 2.9 1.47 14.75 14.75 0 0 1 2.33 2.06 21.56 21.56 0 0 1 1.86 2.33l1.18-3.66.5-1.23a2.35 2.35 0 0 1 .43-.7 1.09 1.09 0 0 1 .56-.3 4.54 4.54 0 0 1 .94-.07h4.51a4.24 4.24 0 0 1 .79.09 1.5 1.5 0 0 1 .78.42 2 2 0 0 1 .61.76 2.43 2.43 0 0 1 .18 1zM742.83 49a11.16 11.16 0 0 0 .62 3.74 9.11 9.11 0 0 0 1.77 3 8.5 8.5 0 0 0 2.77 2 8.6 8.6 0 0 0 3.59.74 9.6 9.6 0 0 0 3.77-.74 9.74 9.74 0 0 0 3-2 9.21 9.21 0 0 0 2-3 10 10 0 0 0 0-7.44 9.9 9.9 0 0 0-2-3.09 9.63 9.63 0 0 0-3-2.1 9.11 9.11 0 0 0-3.77-.77 8.17 8.17 0 0 0-3.59.77 8.44 8.44 0 0 0-2.77 2.1 9.81 9.81 0 0 0-1.77 3.09 11.1 11.1 0 0 0-.62 3.7zm37.1-28.42a2.71 2.71 0 0 1 .48-1.63 1.92 1.92 0 0 1 1.67-.67h7.42a1.42 1.42 0 0 1 .63.17 2.08 2.08 0 0 1 .62.47 2.69 2.69 0 0 1 .49.72 2.26 2.26 0 0 1 .19.94v45.25a2.23 2.23 0 0 1-.65 1.74 2.41 2.41 0 0 1-1.68.59h-7a2.07 2.07 0 0 1-1.67-.59 2.73 2.73 0 0 1-.48-1.74zm18.74-3.84a2.45 2.45 0 0 1 .55-1.81 2.36 2.36 0 0 1 1.69-.53h7a2.63 2.63 0 0 1 1.71.53 2.24 2.24 0 0 1 .65 1.81v5.9a2.21 2.21 0 0 1-.17.79 3.55 3.55 0 0 1-.46.82 2.61 2.61 0 0 1-.75.65 1.91 1.91 0 0 1-1 .25h-7c-1.49 0-2.24-.83-2.24-2.51zm0 15.32a2.6 2.6 0 0 1 .55-1.67 2 2 0 0 1 1.69-.69h6.94a2.22 2.22 0 0 1 .79.16 2.69 2.69 0 0 1 .78.49 2.94 2.94 0 0 1 .62.74 1.85 1.85 0 0 1 .26 1v33.74a2.29 2.29 0 0 1-.63 1.74 2.6 2.6 0 0 1-1.82.59h-6.94c-1.49 0-2.24-.78-2.24-2.33zm19.69-1.82a1.9 1.9 0 0 1 .83-.43 4.12 4.12 0 0 1 .83-.09h4.57a2.07 2.07 0 0 1 .94.2 2 2 0 0 1 .67.53 2.7 2.7 0 0 1 .44.76c.11.28.21.57.32.87l.93 3.87a15.23 15.23 0 0 1 1.32-2.13 11.32 11.32 0 0 1 2.2-2.24 12.39 12.39 0 0 1 3.16-1.75 11.81 11.81 0 0 1 4.26-.71 14.32 14.32 0 0 1 11.07 4.95 16.8 16.8 0 0 1 3.1 5.37 19.32 19.32 0 0 1 1.06 6.56v19.83a2.67 2.67 0 0 1-.5 1.74 2 2 0 0 1-1.59.59h-7a2.73 2.73 0 0 1-1.79-.44 2.28 2.28 0 0 1-.48-1.72V46.29a5.32 5.32 0 0 0-.59-2.47 7.24 7.24 0 0 0-1.56-2.06 7.38 7.38 0 0 0-2.19-1.4 6.3 6.3 0 0 0-2.5-.52 5.55 5.55 0 0 0-2.23.49 7.66 7.66 0 0 0-2.09 1.34 8.16 8.16 0 0 0-1.6 2 6 6 0 0 0-.74 2.53v19.72a2.94 2.94 0 0 1-.2 1 1.63 1.63 0 0 1-.59.78 2.53 2.53 0 0 1-.74.34 3.2 3.2 0 0 1-.8.09H820a2.13 2.13 0 0 1-2.45-2.33V32a2.27 2.27 0 0 1 .25-1.06 2 2 0 0 1 .72-.75zm70.22 36.58a7 7 0 0 0 .32-2.34V61.8c-.59.62-1.19 1.28-1.79 2a16.78 16.78 0 0 1-2 1.94 10.68 10.68 0 0 1-2.5 1.47 8.52 8.52 0 0 1-3.24.57 20.15 20.15 0 0 1-7.57-1.39 17.9 17.9 0 0 1-6-3.89 17.63 17.63 0 0 1-4-6 20.05 20.05 0 0 1-1.42-7.66 21 21 0 0 1 1.42-7.77 19.33 19.33 0 0 1 4-6.3 18.26 18.26 0 0 1 6-4.21 18.59 18.59 0 0 1 7.55-1.56 9.2 9.2 0 0 1 3.37.58 11.21 11.21 0 0 1 2.73 1.48 15.51 15.51 0 0 1 2.24 2c.67.76 1.32 1.51 1.92 2.26l1.15-3.6c.12-.35.24-.66.34-.94a2.29 2.29 0 0 1 .39-.71 1.47 1.47 0 0 1 .62-.44 2.71 2.71 0 0 1 1-.15h4.51a3.88 3.88 0 0 1 .77.09 1.51 1.51 0 0 1 .77.42 2.29 2.29 0 0 1 .64.73 2.09 2.09 0 0 1 .21 1v30.9a21.6 21.6 0 0 1-1.55 8.38 17.71 17.71 0 0 1-10.57 10.12 22.87 22.87 0 0 1-7.89 1.36 23.47 23.47 0 0 1-3.51-.29 26.23 26.23 0 0 1-3.74-.86 21.59 21.59 0 0 1-3.6-1.47 14.94 14.94 0 0 1-3.08-2.07 3.18 3.18 0 0 1-.63-.64 2 2 0 0 1-.38-.82 2.31 2.31 0 0 1 0-1 3.16 3.16 0 0 1 .5-1.11l2.87-4a2.45 2.45 0 0 1 1.49-.91 2.84 2.84 0 0 1 1.76.72 5.79 5.79 0 0 0 1.74 1.17 12.07 12.07 0 0 0 2 .7 12.77 12.77 0 0 0 2.06.33c.68 0 1.29.08 1.84.08a12 12 0 0 0 2.84-.37 11.29 11.29 0 0 0 2.84-1.01 9.57 9.57 0 0 0 2.27-1.74 5.43 5.43 0 0 0 1.31-2.37zm-17.32-18a11.25 11.25 0 0 0 .62 3.77 8.94 8.94 0 0 0 1.77 3 8.31 8.31 0 0 0 2.77 2 8.76 8.76 0 0 0 3.59.73 9.67 9.67 0 0 0 3.65-.69 9.17 9.17 0 0 0 3-1.89 9.75 9.75 0 0 0 2-2.85 9.31 9.31 0 0 0 .86-3.54v-1a9.34 9.34 0 0 0-.86-3.5 10.13 10.13 0 0 0-2-2.9 9.62 9.62 0 0 0-3-2 9 9 0 0 0-3.65-.74 8.17 8.17 0 0 0-3.59.77 8.64 8.64 0 0 0-2.77 2.07 9.27 9.27 0 0 0-1.77 3.06 11.1 11.1 0 0 0-.62 3.73z"/></g></g></svg>