<svg xmlns="http://www.w3.org/2000/svg" viewBox="0 0 900 863.03"><defs><style>.cls-1{fill:#c31c4a}</style></defs><g id="Capa_2" data-name="Capa 2"><g id="Capa_1-2" data-name="Capa 1"><path class="cls-1" d="M900 642c-1-46.95-31-111.1-67.68-140.46a178.91 178.91 0 0 0-132.52-38.46c-82.71 9.19-142.55 84-133.34 166.67a125.45 125.45 0 0 0 28.31 67.16c26.13 31.07 63.07 47.2 101.6 46.18a7.55 7.55 0 0 0 7.21-7.6v-53.08a7.53 7.53 0 0 0-7.51-7.52c-14-.13-29.35-4.62-39.78-13a58.8 58.8 0 0 1-21.86-39.68c-3.18-28.84 8.6-57 32.8-75.53 9.82-7.52 28.41-14.38 40.71-15.69 38.56-4.08 76.21 11.67 101.16 43.84 10.81 13.94 20.32 40.27 21.92 57.84a147.27 147.27 0 0 1-32.8 107.2c-27.23 33.37-85.46 56.47-128.5 54.56-93.72-4.12-173.31-76.13-183.99-172.2q-1.41-12.69-1.54-25.19v-.33c-1.22-123.59 89.22-231.17 212.88-250a7.53 7.53 0 0 0 6.47-7.41v-53.78a7.63 7.63 0 0 0-8.58-7.58c-81.53 11.24-157.74 52.87-209.19 117.2A321.68 321.68 0 0 0 450 450.72a321.68 321.68 0 0 0-35.76-55.58c-51.45-64.33-127.66-106-209.19-117.2a7.63 7.63 0 0 0-8.58 7.58v53.75a7.53 7.53 0 0 0 6.47 7.41c123.66 18.86 214.1 126.44 212.88 250v.33q-.13 12.5-1.54 25.19C403.59 718.3 324 790.31 230.33 794.45c-43 1.91-101.27-21.19-128.5-54.56A147.27 147.27 0 0 1 69 632.69c1.6-17.57 11.11-43.9 21.92-57.84 25-32.17 62.6-47.92 101.16-43.84 12.3 1.31 30.89 8.17 40.71 15.69 24.2 18.53 36 46.69 32.8 75.53a58.8 58.8 0 0 1-21.86 39.68c-10.43 8.36-25.79 12.85-39.78 13a7.53 7.53 0 0 0-7.51 7.52v53.11a7.55 7.55 0 0 0 7.21 7.6c38.53 1 75.47-15.11 101.6-46.18a125.45 125.45 0 0 0 28.31-67.16c9.24-82.73-50.56-157.5-133.31-166.69a178.91 178.91 0 0 0-132.52 38.46C31.08 530.93 1 595.08.05 642v4.54c0 63.79 28 124.56 79.69 167.68 32.07 26.74 71.52 42.56 113 47.17C300.15 873.35 399.85 818.24 450 729.62c50.15 88.62 149.85 143.73 257.29 131.8 41.5-4.61 81-20.43 113-47.17C872 771.13 900 710.36 900 646.57V642z"/><path class="cls-1" d="M454.62 334.47a7.58 7.58 0 0 1-9.23 0L429.15 322c-48.31-37.17-76-93.29-76-154s27.72-116.81 76-154l16.24-12.43a7.56 7.56 0 0 1 9.22 0l16.24 12.48c48.32 37.16 76 93.28 76 154s-27.71 116.79-76 154zm1.73-237.69a7.7 7.7 0 0 0-12.69 0 125.62 125.62 0 0 0 0 142.47 7.7 7.7 0 0 0 12.69 0 125.67 125.67 0 0 0 0-142.47z"/></g></g></svg>